<svg width="3735" height="1397" viewBox="0 0 3735 1397" fill="none" xmlns="http://www.w3.org/2000/svg">
<path opacity="0.1" d="M2141.7 1305.64C2255.96 1305.64 2348.58 1282.38 2348.58 1253.7C2348.58 1225.01 2255.96 1201.76 2141.7 1201.76C2027.44 1201.76 1934.82 1225.01 1934.82 1253.7C1934.82 1282.38 2027.44 1305.64 2141.7 1305.64Z" fill="#FFD233"/>
<g opacity="0.2">
<path opacity="0.2" d="M3464.73 1217.46C3463.89 1219.04 3462.91 1220.53 3461.81 1221.94C3452.08 1215.13 3442.2 1208.47 3432.15 1201.94C3432.35 1201.52 3432.57 1201.09 3432.81 1200.67C3435.14 1196.19 3438.64 1192.42 3442.93 1189.74C3448.49 1186.39 3454.75 1185.58 3459.81 1188.3C3464.88 1191.01 3467.85 1196.58 3468.15 1203.01C3468.33 1208.05 3467.15 1213.03 3464.73 1217.46V1217.46Z" fill="#3F3D56"/>
<path opacity="0.2" d="M3478.31 1192.22C3484.43 1180.76 3482.24 1167.71 3473.42 1163.07C3464.61 1158.44 3452.51 1163.97 3446.39 1175.43C3440.28 1186.89 3442.47 1199.94 3451.28 1204.57C3460.1 1209.21 3472.2 1203.68 3478.31 1192.22Z" fill="#3F3D56"/>
<path opacity="0.2" d="M3491.84 1166.85C3497.95 1155.39 3495.76 1142.34 3486.94 1137.71C3478.13 1133.07 3466.03 1138.6 3459.91 1150.06C3453.8 1161.52 3455.99 1174.57 3464.81 1179.21C3473.62 1183.84 3485.72 1178.31 3491.84 1166.85Z" fill="#3F3D56"/>
<path opacity="0.2" d="M3505.38 1141.48C3511.49 1130.02 3509.3 1116.97 3500.49 1112.33C3491.67 1107.7 3479.57 1113.23 3473.46 1124.69C3467.34 1136.15 3469.53 1149.2 3478.35 1153.83C3487.16 1158.47 3499.27 1152.94 3505.38 1141.48Z" fill="#3F3D56"/>
<path opacity="0.2" d="M3518.93 1116.1C3525.04 1104.64 3522.85 1091.59 3514.03 1086.95C3505.22 1082.32 3493.12 1087.85 3487 1099.31C3480.89 1110.77 3483.08 1123.82 3491.9 1128.45C3500.71 1133.09 3512.81 1127.56 3518.93 1116.1Z" fill="#3F3D56"/>
<path opacity="0.2" d="M3535.71 902.523C3535 898.647 3534.56 894.727 3534.39 890.791L3579.97 906.009L3534.39 882.545C3535.06 870.82 3538.13 859.354 3543.42 848.852C3548.71 838.349 3556.11 829.032 3565.16 821.472L3609.32 884.858L3575.04 814.349C3585.11 808.101 3596.37 803.979 3608.12 802.238C3619.87 800.498 3631.85 801.176 3643.32 804.231C3654.79 807.287 3665.51 812.653 3674.8 819.997C3684.09 827.341 3691.77 836.505 3697.34 846.92C3702.91 857.334 3706.27 868.776 3707.19 880.532C3708.12 892.289 3706.6 904.11 3702.73 915.258C3698.86 926.407 3692.72 936.645 3684.69 945.336C3676.66 954.027 3666.92 960.984 3656.06 965.775C3657.18 971.855 3657.63 978.036 3657.41 984.211L3587.95 983.675L3656.35 994.854C3654.04 1008.96 3648.22 1022.28 3639.43 1033.6C3630.64 1044.92 3619.14 1053.88 3605.98 1059.68C3608.88 1075.55 3607.23 1091.91 3601.21 1106.9C3595.19 1121.88 3585.04 1134.87 3571.93 1144.4C3558.82 1153.92 3543.27 1159.59 3527.07 1160.76C3510.87 1161.93 3494.66 1158.54 3480.3 1150.99C3465.95 1143.44 3454.02 1132.04 3445.88 1118.07C3437.75 1104.11 3433.74 1088.16 3434.3 1072.04C3434.87 1055.92 3440 1040.28 3449.09 1026.92C3458.19 1013.55 3470.89 1003 3485.74 996.463C3482.29 977.509 3485.36 957.955 3494.44 940.936C3503.52 923.917 3518.09 910.419 3535.83 902.607L3535.71 902.523Z" fill="#FFD233"/>
<path opacity="0.1" d="M3647.27 1021.34C3638.22 1038.39 3623.62 1051.9 3605.86 1059.68C3608.76 1075.55 3607.11 1091.91 3601.09 1106.9C3595.07 1121.88 3584.92 1134.87 3571.81 1144.4C3558.7 1153.92 3543.15 1159.59 3526.95 1160.76C3510.75 1161.93 3494.54 1158.54 3480.18 1150.99C3465.83 1143.44 3453.9 1132.04 3445.76 1118.07C3437.63 1104.11 3433.62 1088.16 3434.19 1072.04C3434.75 1055.92 3439.88 1040.28 3448.97 1026.92C3458.07 1013.55 3470.77 1003 3485.62 996.463C3482.27 978.145 3651.83 1012.82 3647.27 1021.34Z" fill="black"/>
</g>
<g opacity="0.2">
<path opacity="0.2" d="M3410.49 710.52C3409.44 713.211 3408.17 715.812 3406.69 718.297C3389.68 709.269 3372.46 700.52 3355.02 692.051C3355.26 691.33 3355.53 690.576 3355.82 689.855C3358.65 682.216 3363.48 675.468 3369.83 670.313C3378.05 663.777 3387.96 661.313 3396.84 664.648C3405.71 667.983 3411.39 676.38 3413.16 686.621C3414.44 694.681 3413.52 702.934 3410.49 710.52Z" fill="#3F3D56"/>
<path opacity="0.2" d="M3427.18 667.139C3434.71 647.51 3428.57 626.972 3413.47 621.265C3398.37 615.559 3380.03 626.844 3372.5 646.473C3364.98 666.101 3371.12 686.64 3386.21 692.347C3401.31 698.053 3419.65 686.768 3427.18 667.139Z" fill="#3F3D56"/>
<path opacity="0.2" d="M3443.85 623.71C3451.37 604.081 3445.23 583.543 3430.13 577.836C3415.03 572.129 3396.69 583.415 3389.17 603.043C3381.64 622.672 3387.78 643.21 3402.88 648.917C3417.98 654.624 3436.32 643.338 3443.85 623.71Z" fill="#3F3D56"/>
<path opacity="0.2" d="M3460.48 580.258C3468.01 560.63 3461.87 540.091 3446.77 534.385C3431.67 528.678 3413.33 539.964 3405.8 559.592C3398.28 579.221 3404.42 599.759 3419.52 605.466C3434.62 611.173 3452.96 599.887 3460.48 580.258Z" fill="#3F3D56"/>
<path opacity="0.2" d="M3477.15 536.845C3484.67 517.217 3478.53 496.678 3463.44 490.971C3448.34 485.265 3430 496.551 3422.47 516.179C3414.95 535.808 3421.08 556.346 3436.18 562.053C3451.28 567.759 3469.62 556.474 3477.15 536.845Z" fill="#3F3D56"/>
<path opacity="0.2" d="M3461.33 190.541C3459.41 184.404 3457.92 178.144 3456.86 171.803L3533.19 187.239L3455.27 158.378C3454 139.471 3456.62 120.503 3462.98 102.636C3469.33 84.7688 3479.3 68.3778 3492.26 54.4661L3575.92 147.534L3506.71 41.0581C3521.64 29.0811 3538.9 20.2798 3557.4 15.2004C3575.91 10.1209 3595.27 8.87168 3614.28 11.5302C3633.29 14.1888 3651.55 20.6983 3667.92 30.6549C3684.29 40.6115 3698.43 53.8027 3709.45 69.4097C3720.47 85.0168 3728.15 102.707 3732 121.381C3735.85 140.056 3735.79 159.317 3731.83 177.97C3727.87 196.622 3720.09 214.267 3708.98 229.81C3697.86 245.353 3683.65 258.462 3667.22 268.324C3670.22 277.871 3672.18 287.709 3673.06 297.671L3561.37 310.542L3673.5 314.984C3672.62 338.113 3665.95 360.659 3654.09 380.585C3642.23 400.51 3625.56 417.186 3605.57 429.103C3613.4 454.018 3614.01 480.617 3607.33 505.86C3600.66 531.103 3586.96 553.972 3567.82 571.854C3548.67 589.735 3524.84 601.908 3499.06 606.98C3473.27 612.053 3446.57 609.821 3422 600.54C3397.43 591.258 3375.99 575.302 3360.12 554.494C3344.26 533.686 3334.61 508.865 3332.27 482.869C3329.94 456.873 3335.02 430.75 3346.93 407.484C3358.85 384.219 3377.11 364.75 3399.64 351.303C3390.26 321.522 3391.25 289.477 3402.43 260.317C3413.61 231.157 3434.34 206.576 3461.28 190.524L3461.33 190.541Z" fill="#FFD233"/>
<path opacity="0.1" d="M3664.4 359.314C3653.27 388.504 3632.54 413.103 3605.56 429.12C3613.39 454.035 3614 480.634 3607.32 505.877C3600.64 531.12 3586.95 553.989 3567.8 571.87C3548.65 589.752 3524.82 601.924 3499.04 606.997C3473.25 612.07 3446.55 609.838 3421.98 600.556C3397.42 591.275 3375.97 575.319 3360.11 554.51C3344.24 533.702 3334.59 508.882 3332.26 482.886C3329.92 456.89 3335 430.766 3346.92 407.501C3358.83 384.236 3377.09 364.767 3399.62 351.32C3390.62 322.626 3670.01 344.733 3664.4 359.314Z" fill="black"/>
</g>
<g opacity="0.2">
<path opacity="0.2" d="M2065.57 855.009C2066.43 858.336 2067.56 861.587 2068.95 864.73C2090.33 856.595 2111.95 848.774 2133.82 841.266C2133.63 840.377 2133.45 839.455 2133.21 838.55C2131.01 829.114 2126.31 820.435 2119.59 813.41C2110.84 804.494 2099.52 800.136 2088.63 802.784C2077.74 805.433 2069.72 814.516 2066.1 826.249C2063.33 835.615 2063.15 845.549 2065.57 855.009Z" fill="#3F3D56"/>
<path opacity="0.2" d="M2097.04 837.018C2115.71 832.493 2126 809.158 2120.04 784.897C2114.07 760.636 2094.11 744.637 2075.44 749.161C2056.77 753.686 2046.48 777.021 2052.44 801.282C2058.41 825.543 2078.38 841.543 2097.04 837.018Z" fill="#3F3D56"/>
<path opacity="0.2" d="M2083.84 783.333C2102.5 778.809 2112.8 755.473 2106.83 731.212C2100.87 706.951 2080.9 690.952 2062.23 695.477C2043.57 700.001 2033.27 723.337 2039.24 747.598C2045.2 771.859 2065.17 787.858 2083.84 783.333Z" fill="#3F3D56"/>
<path opacity="0.2" d="M2070.66 729.645C2089.33 725.12 2099.62 701.785 2093.66 677.524C2087.69 653.263 2067.73 637.264 2049.06 641.788C2030.39 646.313 2020.1 669.648 2026.06 693.909C2032.03 718.17 2052 734.17 2070.66 729.645Z" fill="#3F3D56"/>
<path opacity="0.2" d="M2057.45 675.944C2076.12 671.419 2086.41 648.084 2080.45 623.823C2074.48 599.562 2054.51 583.563 2035.85 588.088C2017.18 592.612 2006.89 615.948 2012.85 640.208C2018.82 664.469 2038.79 680.469 2057.45 675.944Z" fill="#3F3D56"/>
<path opacity="0.2" d="M2082.79 234.001C2085.98 227.045 2088.68 219.877 2090.86 212.548L1998.51 219.587L2094.72 197.028C2099.05 174.895 2098.78 152.117 2093.93 130.09C2089.08 108.063 2079.75 87.252 2066.52 68.9314L1953.96 166.508L2051.48 50.9982C2035.64 34.6249 2016.58 21.6622 1995.48 12.9165C1974.39 4.17084 1951.7 -0.170727 1928.84 0.161934C1905.98 0.494594 1883.43 5.49436 1862.6 14.8502C1841.77 24.206 1823.1 37.7178 1807.76 54.5448C1792.41 71.3718 1780.72 91.1542 1773.4 112.661C1766.09 134.168 1763.31 156.94 1765.24 179.559C1767.17 202.178 1773.76 224.162 1784.61 244.141C1795.47 264.121 1810.35 281.669 1828.32 295.695C1823.36 306.525 1819.59 317.853 1817.06 329.483L1946.96 361.008L1813.97 349.829C1811.58 377.245 1816.1 404.821 1827.13 430.065C1838.16 455.31 1855.36 477.427 1877.16 494.418C1864.21 522.677 1859.53 553.982 1863.66 584.756C1867.78 615.53 1880.55 644.53 1900.49 668.441C1920.43 692.353 1946.75 710.21 1976.43 719.972C2006.11 729.734 2037.96 731.007 2068.33 723.645C2098.71 716.283 2126.39 700.584 2148.2 678.341C2170.01 656.099 2185.08 628.211 2191.69 597.866C2198.29 567.521 2196.16 535.943 2185.54 506.743C2174.92 477.543 2156.25 451.898 2131.64 432.741C2147.11 398.963 2150.7 361.001 2141.82 324.957C2132.94 288.912 2112.11 256.878 2082.69 234.001H2082.79Z" fill="#FFD233"/>
<path opacity="0.1" d="M1818.08 403.427C1826.88 439.499 1847.7 471.562 1877.16 494.417C1864.21 522.675 1859.53 553.981 1863.66 584.755C1867.78 615.529 1880.55 644.529 1900.49 668.44C1920.43 692.351 1946.75 710.209 1976.43 719.971C2006.11 729.733 2037.96 731.006 2068.34 723.644C2098.71 716.282 2126.39 700.583 2148.2 678.34C2170.01 656.098 2185.08 628.21 2191.69 597.865C2198.29 567.52 2196.16 535.942 2185.54 506.742C2174.93 477.542 2156.25 451.897 2131.64 432.74C2146.63 400.142 1813.67 385.393 1818.08 403.427Z" fill="black"/>
</g>
<path d="M3547.51 190.558H1912.27C1910.35 190.56 1908.45 190.937 1906.68 191.668C1904.91 192.399 1903.31 193.469 1901.95 194.817C1900.6 196.165 1899.53 197.764 1898.8 199.524C1898.07 201.284 1897.7 203.169 1897.7 205.072V1198.74C1897.69 1202.58 1898.45 1206.38 1899.92 1209.92C1901.39 1213.47 1903.55 1216.69 1906.28 1219.41C1909.01 1222.13 1912.25 1224.29 1915.82 1225.76C1919.38 1227.23 1923.21 1228 1927.07 1228H3532.71C3536.57 1228 3540.39 1227.23 3543.96 1225.76C3547.53 1224.29 3550.77 1222.13 3553.49 1219.41C3556.22 1216.69 3558.38 1213.47 3559.86 1209.92C3561.33 1206.38 3562.08 1202.58 3562.08 1198.74V205.072C3562.08 201.23 3560.55 197.543 3557.82 194.822C3555.09 192.1 3551.38 190.566 3547.51 190.558V190.558Z" fill="url(#paint0_linear)"/>
<path d="M3555.46 252.234V1192.89C3555.46 1200.56 3552.39 1207.92 3546.93 1213.34C3541.47 1218.76 3534.07 1221.81 3526.34 1221.82H1933.72C1926 1221.82 1918.58 1218.77 1913.12 1213.35C1907.66 1207.92 1904.59 1200.56 1904.59 1192.89V252.234H3555.46Z" fill="white"/>
<path d="M2122.21 240.838V1221.82H1933.72C1926 1221.82 1918.58 1218.77 1913.12 1213.35C1907.66 1207.92 1904.59 1200.56 1904.59 1192.89V240.922L2122.21 240.838Z" fill="#D7D9E1"/>
<path d="M3555.46 210.452V252.235H1904.59V210.452C1904.59 206.647 1906.11 202.998 1908.82 200.307C1911.53 197.617 1915.2 196.105 1919.04 196.105H3541.01C3544.84 196.105 3548.52 197.617 3551.23 200.307C3553.94 202.998 3555.46 206.647 3555.46 210.452Z" fill="#EDEDF4"/>
<path opacity="0.8" d="M1930.75 230.463C1934.48 230.463 1937.5 227.462 1937.5 223.759C1937.5 220.057 1934.48 217.055 1930.75 217.055C1927.02 217.055 1924 220.057 1924 223.759C1924 227.462 1927.02 230.463 1930.75 230.463Z" fill="#FA5959"/>
<path opacity="0.8" d="M1949.32 230.463C1953.05 230.463 1956.07 227.462 1956.07 223.759C1956.07 220.057 1953.05 217.055 1949.32 217.055C1945.59 217.055 1942.57 220.057 1942.57 223.759C1942.57 227.462 1945.59 230.463 1949.32 230.463Z" fill="#FED253"/>
<path opacity="0.8" d="M1967.89 230.463C1971.62 230.463 1974.64 227.462 1974.64 223.759C1974.64 220.057 1971.62 217.055 1967.89 217.055C1964.16 217.055 1961.14 220.057 1961.14 223.759C1961.14 227.462 1964.16 230.463 1967.89 230.463Z" fill="#8CCF4D"/>
<path d="M2085.07 334.694H1926.4V351.454H2085.07V334.694Z" fill="#EDEDF4"/>
<path d="M2085.07 383.298H1926.4V400.058H2085.07V383.298Z" fill="#EDEDF4"/>
<path d="M2085.07 431.902H1926.4V448.662H2085.07V431.902Z" fill="#EDEDF4"/>
<path d="M2085.07 480.506H1926.4V497.266H2085.07V480.506Z" fill="#EDEDF4"/>
<path d="M2085.07 529.11H1926.4V545.87H2085.07V529.11Z" fill="#EDEDF4"/>
<path d="M2826.1 172.138V165.434H2815.97V172.138H2826.1Z" fill="url(#paint1_linear)"/>
<path opacity="0.1" d="M3301.83 363.722H2370.05V940.267H3301.83V363.722Z" fill="#FFD233"/>
<path d="M3301.83 1005.63H3173.54V1045.85H3301.83V1005.63Z" fill="#FFD233"/>
<path d="M3237.69 407.734H2297.47V996.815H3237.69V407.734Z" fill="#D7D9E1"/>
<path d="M3234.31 414.002H2302.53V990.547H3234.31V414.002Z" fill="white"/>
<path opacity="0.1" d="M2832.57 491.082H2744.79C2741.08 491.082 2738.04 493.26 2738.04 495.908V500.719C2738.08 501.472 2738.32 502.201 2738.73 502.835C2739.14 503.469 2739.71 503.987 2740.39 504.339H2721.16C2717.45 504.339 2714.41 506.501 2714.41 509.166V513.976C2714.41 516.624 2717.45 518.803 2721.16 518.803H2723.08C2722.94 519.183 2722.86 519.586 2722.85 519.993V524.819C2722.85 527.468 2725.89 529.63 2729.6 529.63H2817.38C2821.09 529.63 2824.13 527.468 2824.13 524.819V519.993C2824.13 517.345 2821.09 515.182 2817.38 515.182H2815.45C2815.6 514.796 2815.68 514.388 2815.69 513.976V509.166C2815.64 508.412 2815.41 507.683 2814.99 507.049C2814.58 506.415 2814.01 505.897 2813.34 505.545H2832.57C2836.28 505.545 2839.32 503.383 2839.32 500.719V495.908C2839.32 493.26 2836.28 491.082 2832.57 491.082Z" fill="#FFD233"/>
<path opacity="0.1" d="M2707.66 593.318H2619.88C2616.17 593.318 2613.13 595.496 2613.13 598.145V602.955C2613.17 603.708 2613.41 604.437 2613.82 605.071C2614.23 605.705 2614.8 606.223 2615.47 606.575H2596.25C2592.53 606.575 2589.49 608.737 2589.49 611.402V616.212C2589.49 618.86 2592.53 621.039 2596.25 621.039H2598.17C2598.03 621.42 2597.95 621.822 2597.93 622.229V627.056C2597.93 629.704 2600.97 631.866 2604.69 631.866H2692.46C2696.18 631.866 2699.22 629.704 2699.22 627.056V622.229C2699.22 619.581 2696.18 617.419 2692.46 617.419H2690.54C2690.69 617.032 2690.77 616.624 2690.78 616.212V611.402C2690.73 610.649 2690.49 609.92 2690.08 609.285C2689.67 608.651 2689.1 608.133 2688.43 607.782H2707.66C2711.37 607.782 2714.41 605.62 2714.41 602.955V598.145C2714.41 595.496 2711.37 593.318 2707.66 593.318Z" fill="#FFD233"/>
<path opacity="0.1" d="M2918.66 611.754H2830.88C2827.17 611.754 2824.13 613.932 2824.13 616.581V621.391C2824.17 622.144 2824.41 622.873 2824.82 623.507C2825.23 624.141 2825.8 624.659 2826.47 625.011H2807.25C2803.53 625.011 2800.5 627.173 2800.5 629.838V634.648C2800.5 637.296 2803.53 639.475 2807.25 639.475H2809.17C2809.03 639.856 2808.95 640.258 2808.94 640.665V645.492C2808.94 648.14 2811.97 650.302 2815.69 650.302H2903.46C2907.18 650.302 2910.22 648.14 2910.22 645.492V640.665C2910.22 638.017 2907.18 635.855 2903.46 635.855H2901.54C2901.69 635.468 2901.77 635.06 2901.78 634.648V629.838C2901.73 629.085 2901.49 628.356 2901.08 627.721C2900.67 627.087 2900.1 626.569 2899.43 626.218H2918.66C2922.37 626.218 2925.41 624.056 2925.41 621.391V616.581C2925.41 613.932 2922.37 611.754 2918.66 611.754Z" fill="#FFD233"/>
<path opacity="0.1" d="M2752.41 629.9C2755.15 626.199 2752.45 619.62 2746.4 615.205C2740.34 610.791 2733.21 610.212 2730.47 613.913C2727.74 617.614 2730.43 624.194 2736.49 628.608C2742.54 633.023 2749.67 633.601 2752.41 629.9Z" fill="#FFD233"/>
<path opacity="0.1" d="M2718.66 455.584C2721.4 451.883 2718.71 445.303 2712.65 440.889C2706.59 436.474 2699.46 435.896 2696.73 439.597C2693.99 443.298 2696.68 449.877 2702.74 454.292C2708.8 458.706 2715.93 459.285 2718.66 455.584Z" fill="#FFD233"/>
<path opacity="0.1" d="M2830.07 571.253C2832.8 567.551 2830.11 560.972 2824.05 556.558C2818 552.143 2810.87 551.565 2808.13 555.266C2805.39 558.967 2808.09 565.546 2814.14 569.961C2820.2 574.375 2827.33 574.954 2830.07 571.253Z" fill="#FFD233"/>
<g opacity="0.7">
<path opacity="0.7" d="M2514.36 990.53H2490.73C2494.46 988.922 2498.48 988.092 2502.54 988.092C2506.61 988.092 2510.63 988.922 2514.36 990.53V990.53Z" fill="#3F3D56"/>
<path opacity="0.7" d="M2540.54 977.122C2540.55 981.63 2540.07 986.125 2539.11 990.53H2466.02C2463.54 979.093 2464.29 967.198 2468.18 956.155C2469.32 952.965 2470.77 949.89 2472.5 946.971C2479.44 935.239 2490.32 927.781 2502.56 927.781C2514.8 927.781 2525.69 935.289 2532.63 946.971C2534.3 949.803 2535.72 952.782 2536.85 955.87C2539.32 962.686 2540.57 969.878 2540.54 977.122V977.122Z" fill="#3F3D56"/>
<path opacity="0.7" d="M2502.56 966.161C2523.54 966.161 2540.54 944.063 2540.54 916.803C2540.54 889.543 2523.54 867.445 2502.56 867.445C2481.59 867.445 2464.58 889.543 2464.58 916.803C2464.58 944.063 2481.59 966.161 2502.56 966.161Z" fill="#3F3D56"/>
<path opacity="0.7" d="M2502.56 905.825C2523.54 905.825 2540.54 883.727 2540.54 856.467C2540.54 829.207 2523.54 807.108 2502.56 807.108C2481.59 807.108 2464.58 829.207 2464.58 856.467C2464.58 883.727 2481.59 905.825 2502.56 905.825Z" fill="#3F3D56"/>
<path opacity="0.7" d="M2644.74 666.911C2663.99 691.22 2676.64 720.029 2681.47 750.579C2686.29 781.129 2683.14 812.397 2672.32 841.392C2661.49 870.387 2643.35 896.138 2619.63 916.179C2595.91 936.22 2567.4 949.881 2536.85 955.854C2532.47 956.708 2528.05 957.412 2523.58 957.915C2509.71 959.582 2495.7 959.655 2481.82 958.133C2477.21 957.653 2472.67 956.988 2468.18 956.139C2437.44 950.408 2408.7 936.904 2384.75 916.932C2360.8 896.959 2342.43 871.193 2331.43 842.119C2320.44 813.046 2317.17 781.648 2321.96 750.957C2326.75 720.267 2339.42 691.32 2358.76 666.911C2340.05 643.289 2327.57 615.407 2322.44 585.788C2317.32 556.169 2319.72 525.749 2329.42 497.283L2467.55 543.323L2337.98 476.5C2343.68 464.809 2350.64 453.762 2358.73 443.55C2351.42 434.334 2345.04 424.432 2339.67 413.985H2604.32L2658.89 422.885C2654.65 430.086 2649.93 436.99 2644.74 443.55C2670.02 475.366 2683.73 514.719 2683.67 555.239C2683.67 555.691 2683.67 556.161 2683.67 556.613C2683.62 564.379 2683.06 572.134 2681.98 579.826C2681.37 584.385 2680.59 588.882 2679.62 593.318C2676.74 606.617 2672.35 619.55 2666.54 631.866C2666.18 632.637 2665.81 633.391 2665.44 634.145C2661.63 641.927 2657.25 649.427 2652.36 656.587C2650.03 659.939 2647.6 663.291 2645.03 666.525L2644.74 666.911Z" fill="#FFD233"/>
<path opacity="0.1" d="M2319.82 555.239C2319.75 595.762 2333.48 635.118 2358.76 666.928C2337.66 693.571 2324.53 725.573 2320.88 759.274C2317.23 792.976 2323.2 827.017 2338.12 857.506C2353.03 887.996 2376.29 913.702 2405.23 931.688C2434.16 949.673 2467.61 959.211 2501.75 959.211C2535.89 959.211 2569.34 949.673 2598.28 931.688C2627.21 913.702 2650.47 887.996 2665.39 857.506C2680.3 827.017 2686.28 792.976 2682.63 759.274C2678.97 725.573 2665.85 693.571 2644.74 666.928C2669.12 636.19 2319.82 534.96 2319.82 555.239Z" fill="black"/>
<path opacity="0.7" d="M3062.64 990.53H2995.8C2996.76 988.218 2997.89 985.977 2999.17 983.826C3006.11 972.094 3017 964.636 3029.24 964.636C3041.48 964.636 3052.36 972.144 3059.3 983.826C3060.58 985.978 3061.69 988.219 3062.64 990.53V990.53Z" fill="#3F3D56"/>
<path opacity="0.7" d="M3067.2 953.658C3067.31 964.234 3064.58 974.647 3059.28 983.826C3057.88 986.198 3056.27 988.441 3054.47 990.53H3003.97C3002.17 988.441 3000.56 986.198 2999.16 983.826C2993.87 974.647 2991.13 964.234 2991.24 953.658C2991.24 926.39 3008.24 904.3 3029.22 904.3C3050.2 904.3 3067.2 926.39 3067.2 953.658Z" fill="#3F3D56"/>
<path opacity="0.7" d="M3171.69 763.734L3171.4 764.119C3196.67 795.935 3210.39 835.289 3210.33 875.808C3210.33 878.674 3210.33 881.54 3210.12 884.372C3210.12 885.177 3210.12 886.048 3209.99 886.803L3209.89 888.479C3209.89 889.467 3209.74 890.473 3209.63 891.462C3209.53 892.451 3209.47 893.607 3209.33 894.663C3209.2 895.719 3209.06 897.261 3208.89 898.551V898.97C3208.77 899.926 3208.64 900.881 3208.49 901.82C3208.49 902.49 3208.3 903.16 3208.2 903.814C3207.79 906.429 3207.32 909.026 3206.8 911.591C3206.66 912.328 3206.49 913.066 3206.33 913.803C3206.16 914.54 3206.02 915.311 3205.84 916.066C3205.65 916.82 3205.43 917.742 3205.21 918.647C3205.16 918.924 3205.09 919.199 3205.01 919.468C3204.79 920.39 3204.55 921.295 3204.32 922.2C3204.08 923.105 3203.95 923.591 3203.73 924.295C3203.46 925.334 3203.15 926.373 3202.83 927.412C3202.51 928.451 3202.21 929.457 3201.89 930.479C3200.76 934.189 3199.47 937.831 3198 941.407C3197.53 942.597 3197.06 943.77 3196.57 944.943C3196.2 945.848 3195.81 946.737 3195.42 947.608C3195.2 948.111 3194.98 948.614 3194.75 949.116C3194.51 949.619 3194.21 950.34 3193.92 950.943C3193.63 951.547 3193.19 952.619 3192.81 953.306C3192.28 954.413 3191.74 955.519 3191.12 956.658C3190.8 957.295 3190.48 957.932 3190.14 958.569C3187.74 963.206 3185.14 967.726 3182.32 972.128C3181.66 973.167 3180.99 974.206 3180.3 975.229C3179.6 976.29 3178.89 977.329 3178.17 978.346L3176.13 981.296C3173.88 984.469 3171.47 987.564 3168.92 990.581H2887.88C2885.37 987.547 2882.94 984.43 2880.63 981.229L2879.29 979.368C2878.84 978.715 2878.36 978.061 2877.92 977.391L2877.23 976.368C2876.66 975.53 2876.1 974.692 2875.54 973.837L2874.94 972.899C2874.31 971.927 2873.69 970.938 2873.08 969.932C2870.8 966.245 2868.67 962.474 2866.67 958.619C2866.33 957.982 2865.99 957.346 2865.69 956.709C2865.13 955.619 2864.59 954.513 2864 953.357C2863.6 952.586 2863.23 951.798 2862.88 950.994C2862.6 950.39 2862.31 949.787 2862.06 949.167C2861.8 948.547 2861.6 948.161 2861.38 947.658C2860.99 946.787 2860.61 945.982 2860.23 944.993C2859.74 943.82 2859.27 942.647 2858.8 941.457C2857.38 937.87 2856.1 934.234 2854.92 930.53C2854.6 929.507 2854.28 928.485 2853.97 927.462C2853.67 926.44 2853.35 925.384 2853.08 924.345C2852.86 923.641 2852.67 922.954 2852.49 922.25C2852.3 921.546 2852.01 920.44 2851.79 919.518C2851.71 919.249 2851.64 918.975 2851.59 918.697C2851.37 917.842 2851.17 917.021 2850.97 916.116C2850.76 915.211 2850.63 914.608 2850.48 913.853C2850.33 913.099 2850.14 912.378 2850 911.641C2849.48 909.077 2849.01 906.479 2848.6 903.864C2848.5 903.211 2848.4 902.54 2848.32 901.87C2848.16 900.931 2848.03 899.976 2847.91 899.021V898.602C2847.74 897.311 2847.59 896.004 2847.47 894.713C2847.35 893.423 2847.24 892.585 2847.17 891.512C2847.1 890.44 2846.98 889.518 2846.92 888.529L2846.81 886.853C2846.81 886.048 2846.71 885.177 2846.68 884.423C2846.54 881.59 2846.48 878.724 2846.48 875.858C2846.41 835.336 2860.14 795.98 2885.42 764.17C2884.44 762.946 2883.49 761.706 2882.55 760.449L2881.92 759.611C2881.19 758.65 2880.48 757.678 2879.8 756.695L2879.14 755.773C2878.33 754.616 2877.45 753.443 2876.74 752.27C2876.62 752.103 2876.51 751.93 2876.41 751.75C2875.58 750.51 2874.72 749.27 2873.97 747.996L2873.47 747.208C2872.73 745.985 2871.97 744.761 2871.24 743.521L2870.87 742.884C2870.11 741.577 2869.37 740.27 2868.64 738.946L2868.39 738.476C2867.73 737.286 2867.1 736.097 2866.48 734.89C2864.93 731.89 2863.44 728.839 2862.07 725.739C2861.26 723.929 2860.39 722.119 2859.73 720.275L2859.46 719.605C2858.98 718.448 2858.53 717.292 2858.09 716.119C2857.65 714.945 2857.23 713.789 2856.81 712.616C2856.39 711.443 2855.98 710.253 2855.59 709.079C2854.95 707.135 2854.34 705.191 2853.75 703.213C2853.6 702.711 2853.45 702.191 2853.31 701.688C2852.99 700.549 2852.67 699.409 2852.37 698.252C2852.06 697.046 2851.76 695.839 2851.47 694.632C2851.19 693.425 2850.95 692.437 2850.7 691.28L2850.54 690.576C2850.27 689.325 2850.02 688.068 2849.79 686.805C2849.6 685.85 2849.41 684.895 2849.26 683.923C2849.2 683.652 2849.15 683.378 2849.11 683.101C2848.92 682.112 2848.77 681.124 2848.62 680.135C2848.42 678.861 2848.23 677.587 2848.06 676.313C2847.88 674.872 2847.69 673.431 2847.54 671.989C2847.54 671.772 2847.54 671.537 2847.54 671.319C2847.41 669.995 2847.27 668.654 2847.19 667.33C2847.1 666.006 2846.98 664.95 2846.92 663.76C2846.92 662.872 2846.8 661.967 2846.76 661.062C2846.73 660.157 2846.76 659.587 2846.68 658.85C2846.59 658.112 2846.68 657.408 2846.68 656.671C2846.68 655.274 2846.68 653.883 2846.68 652.498V652.028C2846.72 632.476 2849.96 613.06 2856.28 594.541L2994.41 640.581L2864.64 573.709C2870.34 562.017 2877.3 550.97 2885.39 540.758C2877.33 530.613 2870.39 519.633 2864.71 508.009C2860.91 500.287 2857.68 492.299 2855.05 484.11C2849.33 466.321 2846.43 447.759 2846.44 429.086C2846.44 424.058 2846.66 419.03 2847.08 414.002H3082.61L3052.35 436.075L3095.24 413.986H3209.69C3210.12 419.014 3210.33 424.042 3210.33 429.07C3210.36 455.143 3204.68 480.912 3193.68 504.59L3085.77 503.819L3185.56 520.093C3181.33 527.294 3176.6 534.198 3171.42 540.758C3196.57 572.529 3210.26 611.754 3210.32 652.163C3210.37 692.573 3196.77 731.832 3171.71 763.667L3171.69 763.734Z" fill="#FFD233"/>
<path opacity="0.1" d="M3210.33 875.808C3210.33 878.674 3210.33 881.54 3210.12 884.372C3210.12 885.177 3210.12 886.048 3209.99 886.802L3209.89 888.478C3209.89 889.467 3209.74 890.473 3209.64 891.462C3209.53 892.451 3209.47 893.607 3209.33 894.663C3209.2 895.719 3209.06 897.261 3208.89 898.551V898.97C3208.77 899.926 3208.64 900.881 3208.49 901.819C3208.49 902.49 3208.3 903.16 3208.2 903.814C3207.8 906.428 3207.32 909.026 3206.8 911.59C3206.66 912.328 3206.5 913.065 3206.33 913.803C3206.16 914.54 3206.02 915.311 3205.84 916.065C3205.65 916.82 3205.43 917.741 3205.21 918.646C3205.16 918.924 3205.1 919.199 3205.01 919.468C3204.79 920.389 3204.55 921.295 3204.32 922.2C3204.08 923.105 3203.95 923.591 3203.73 924.295C3203.46 925.334 3203.15 926.373 3202.83 927.412C3202.51 928.451 3202.21 929.457 3201.89 930.479C3200.76 934.189 3199.47 937.831 3198.01 941.407C3197.53 942.597 3197.06 943.77 3196.57 944.943C3196.2 945.848 3195.81 946.736 3195.42 947.608C3195.2 948.111 3194.98 948.613 3194.75 949.116C3194.51 949.619 3194.21 950.34 3193.92 950.943C3193.63 951.546 3193.19 952.619 3192.81 953.306C3192.28 954.412 3191.74 955.518 3191.12 956.658C3190.8 957.295 3190.48 957.932 3190.14 958.569C3187.74 963.206 3185.14 967.725 3182.32 972.128C3181.67 973.167 3180.99 974.206 3180.3 975.228C3179.6 976.29 3178.89 977.329 3178.17 978.346L3176.13 981.295C3173.88 984.469 3171.48 987.564 3168.92 990.58H2887.88C2885.37 987.547 2882.94 984.43 2880.63 981.228L2879.29 979.368C2878.84 978.714 2878.36 978.061 2877.92 977.39L2877.23 976.368C2876.66 975.53 2876.1 974.692 2875.54 973.837L2874.94 972.899C2874.31 971.927 2873.69 970.938 2873.08 969.932C2870.8 966.245 2868.67 962.474 2866.67 958.619C2866.33 957.982 2865.99 957.345 2865.69 956.708C2865.13 955.619 2864.59 954.513 2864 953.356C2863.6 952.586 2863.23 951.798 2862.88 950.993C2862.6 950.39 2862.31 949.787 2862.06 949.166C2861.8 948.546 2861.6 948.161 2861.38 947.658C2860.99 946.787 2860.61 945.982 2860.23 944.993C2859.75 943.82 2859.27 942.647 2858.8 941.457C2857.38 937.87 2856.1 934.233 2854.92 930.529C2854.6 929.507 2854.28 928.485 2853.97 927.462C2853.67 926.44 2853.35 925.384 2853.08 924.345C2852.86 923.641 2852.67 922.954 2852.49 922.25C2852.3 921.546 2852.01 920.44 2851.79 919.518C2851.71 919.249 2851.64 918.975 2851.59 918.697C2851.37 917.842 2851.17 917.021 2850.97 916.116C2850.76 915.211 2850.63 914.607 2850.48 913.853C2850.33 913.099 2850.14 912.378 2850.01 911.641C2849.48 909.076 2849.01 906.479 2848.6 903.864C2848.5 903.21 2848.4 902.54 2848.32 901.87C2848.17 900.931 2848.03 899.976 2847.91 899.02V898.601C2847.74 897.311 2847.59 896.004 2847.47 894.713C2847.36 893.423 2847.24 892.585 2847.17 891.512C2847.1 890.439 2846.98 889.518 2846.92 888.529L2846.81 886.853C2846.81 886.048 2846.71 885.177 2846.68 884.423C2846.54 881.59 2846.48 878.724 2846.48 875.858C2846.41 835.336 2860.14 795.979 2885.42 764.169C2884.44 762.946 2883.5 761.706 2882.55 760.449L2881.93 759.611C2881.19 758.65 2880.48 757.678 2879.8 756.694L2879.14 755.773C2878.33 754.616 2877.45 753.443 2876.74 752.27C2876.62 752.103 2876.51 751.929 2876.41 751.75C2875.58 750.51 2874.72 749.27 2873.97 747.996L2873.47 747.208C2872.73 745.985 2871.97 744.761 2871.24 743.521L2870.87 742.884C2870.11 741.577 2869.37 740.269 2868.64 738.945L2868.39 738.476C2867.73 737.286 2867.1 736.096 2866.48 734.89C2864.93 731.89 2863.44 728.839 2862.07 725.739C2861.26 723.928 2860.39 722.118 2859.73 720.275L2859.46 719.604C2858.99 718.448 2858.53 717.292 2858.09 716.118C2857.65 714.945 2857.23 713.789 2856.81 712.615C2856.39 711.442 2855.98 710.252 2855.59 709.079C2854.95 707.135 2854.34 705.191 2853.75 703.213C2853.6 702.71 2853.45 702.191 2853.31 701.688C2852.99 700.548 2852.67 699.409 2852.37 698.252C2852.06 697.045 2851.76 695.839 2851.47 694.632C2851.19 693.425 2850.95 692.436 2850.7 691.28L2850.55 690.576C2850.28 689.325 2850.02 688.068 2849.79 686.805C2849.6 685.85 2849.41 684.894 2849.26 683.922C2849.2 683.651 2849.15 683.377 2849.11 683.101C2848.92 682.112 2848.77 681.123 2848.62 680.135C2848.42 678.861 2848.23 677.587 2848.06 676.313C2847.88 674.872 2847.69 673.431 2847.54 671.989C2847.54 671.771 2847.54 671.537 2847.54 671.319C2847.41 669.995 2847.27 668.654 2847.19 667.33C2847.1 666.006 2846.98 664.95 2846.92 663.76C2846.92 662.872 2846.8 661.967 2846.76 661.062C2846.73 660.157 2846.76 659.587 2846.68 658.849C2846.6 658.112 2846.68 657.408 2846.68 656.671C2846.68 655.274 2846.68 653.883 2846.68 652.497C2846.65 652.343 2846.65 652.183 2846.68 652.028C2847.61 648.961 2858.21 649.263 2875.06 652.028C2888.44 654.224 2905.74 657.978 2925.31 662.838C3026.15 687.878 3186.37 742.264 3171.76 763.784L3171.47 764.169C3196.71 795.98 3210.4 835.314 3210.33 875.808V875.808Z" fill="black"/>
<path opacity="0.7" d="M2705.39 572.644C2713.96 564.136 2716.63 552.993 2711.36 547.757C2706.09 542.521 2694.86 545.174 2686.29 553.683C2677.72 562.191 2675.05 573.334 2680.33 578.57C2685.6 583.806 2696.82 581.153 2705.39 572.644Z" fill="#FFD233"/>
<path opacity="0.7" d="M2862.37 510.626C2870.94 502.117 2873.61 490.975 2868.34 485.739C2863.07 480.502 2851.84 483.155 2843.27 491.664C2834.7 500.173 2832.03 511.315 2837.31 516.551C2842.58 521.788 2853.8 519.135 2862.37 510.626Z" fill="#FFD233"/>
<path opacity="0.7" d="M3220.22 621.246C3228.79 612.737 3231.46 601.595 3226.19 596.359C3220.92 591.123 3209.69 593.776 3201.12 602.284C3192.56 610.793 3189.88 621.936 3195.16 627.172C3200.43 632.408 3211.65 629.755 3220.22 621.246Z" fill="#FFD233"/>
<path opacity="0.7" d="M2681.48 661.615C2685.89 655.646 2681.55 645.035 2671.78 637.914C2662.01 630.794 2650.51 629.861 2646.1 635.83C2641.69 641.8 2646.03 652.411 2655.8 659.531C2665.57 666.652 2677.07 667.585 2681.48 661.615Z" fill="#FFD233"/>
<path opacity="0.7" d="M2874.77 980.072C2874.36 979.239 2874.03 978.376 2873.76 977.491C2873.52 975.432 2873.57 973.351 2873.91 971.307V971.24C2873.9 969.774 2873.73 968.314 2873.42 966.882C2872.4 961.385 2871.41 955.871 2870.41 950.373C2869.94 947.826 2869.48 945.345 2869.27 942.731C2869.05 940.116 2869.06 937.451 2869.03 934.82C2868.89 926.272 2867.34 917.775 2867.04 909.244C2866.87 904.803 2866.51 900.361 2866.16 895.937C2865.53 888.311 2864.86 880.702 2863.51 873.177C2862.45 867.21 2859.42 861.646 2859.37 855.579L2859.27 846.143C2859.45 843.445 2859.02 840.741 2858.01 838.232C2856.82 836.16 2855.22 834.347 2853.31 832.902L2851.9 831.712C2847.39 827.869 2842.73 824.198 2837.9 820.701C2837.46 820.349 2837.02 820.031 2836.59 819.712C2838.34 820.051 2840.15 819.923 2841.83 819.343C2842.44 819.072 2842.96 818.653 2843.35 818.124C2843.74 817.596 2843.98 816.977 2844.06 816.327C2844.12 815.884 2844.04 815.437 2843.84 815.036C2843.23 814.091 2842.28 813.414 2841.18 813.142C2839.22 812.56 2837.19 812.228 2835.15 812.153H2834.8C2835 811.335 2835.15 810.507 2835.27 809.673C2835.55 807.248 2835.51 804.795 2835.13 802.382C2835.14 802.226 2835.14 802.069 2835.13 801.913C2834.56 798.058 2833.45 794.237 2832.75 790.382C2832.67 789.896 2832.6 789.41 2832.53 788.924C2832.22 787.119 2832.06 785.292 2832.04 783.46C2832.04 774.36 2836.7 765.996 2839.39 757.298C2841.52 750.376 2842.42 743.141 2842.07 735.912C2842.07 735.376 2842.07 734.839 2841.95 734.236C2841.49 727.697 2839.99 721.272 2837.51 715.197C2834.61 708.107 2830.39 701.47 2828.97 693.962C2828.87 693.409 2828.79 692.889 2828.7 692.286C2828.7 692.185 2828.7 692.101 2828.7 692.001C2828.15 687.677 2828.35 683.286 2827.96 678.945V678.576C2827.96 677.738 2827.79 676.9 2827.64 676.045C2825.09 661.045 2811.62 649.497 2796.82 645.525C2785.39 642.441 2773.76 643.413 2762.28 645.525C2752.39 647.352 2743.37 643.346 2733.58 644.62C2729.72 645.123 2725.68 646.38 2723.2 649.363C2721.93 651.21 2720.77 653.135 2719.74 655.129C2715.34 661.967 2706.59 664.246 2699.35 667.984C2688.33 673.648 2679.53 684.241 2677.9 696.476C2676.36 707.789 2680.85 719.018 2681.52 730.415C2681.78 735.148 2681.48 739.895 2680.63 744.56C2678.94 754.164 2675.57 763.616 2672.58 772.952C2671.1 776.759 2670.34 780.804 2670.33 784.885C2670.59 787.658 2671.22 790.385 2672.19 792.997C2673.61 797.287 2675.21 801.528 2677.05 805.667C2673.64 807.045 2670.06 807.975 2666.4 808.433C2662.65 808.852 2658.69 808.701 2655.45 810.595C2653.94 811.53 2652.65 812.756 2651.63 814.198C2650.08 816.338 2648.98 818.762 2648.39 821.328C2647.8 823.895 2647.72 826.553 2648.17 829.148C2647.5 829.57 2646.94 830.158 2646.57 830.853C2646.19 831.549 2646 832.33 2646.01 833.12C2646.01 834.696 2646.28 836.271 2646.35 837.846C2646.23 840.83 2645.66 843.779 2644.66 846.595C2642 856.252 2641.34 866.343 2642.72 876.26C2643.39 881.188 2643.92 886.082 2644.3 890.993C2645.2 901.937 2645.55 912.864 2645.99 923.926C2646.46 934.418 2645.59 945.027 2647.34 955.401C2647.93 958.871 2649.03 962.541 2651.77 964.72C2652.42 965.173 2653.05 965.672 2653.64 966.212C2655.19 967.888 2655.24 970.267 2655.75 972.43C2656.57 975.409 2658.4 978.016 2660.94 979.809C2663.47 981.601 2666.55 982.47 2669.66 982.268L2666.82 990.396H2841.82C2841.63 988.815 2841.63 987.218 2841.82 985.636V985.737C2842.7 987.13 2843.16 988.75 2843.12 990.396H2876.46C2876.61 986.877 2876.03 983.364 2874.77 980.072Z" fill="url(#paint2_linear)"/>
<path opacity="0.7" d="M2734.29 646.665C2730.44 647.168 2726.44 648.341 2723.98 651.374C2722.74 653.215 2721.61 655.129 2720.6 657.106C2716.25 663.894 2707.57 666.157 2700.35 669.861C2689.41 675.492 2680.68 686.034 2679.04 698.168C2677.54 709.414 2681.98 720.56 2682.66 731.889C2683.53 746.337 2678.25 760.382 2673.78 774.142C2672.31 777.921 2671.55 781.939 2671.55 785.991C2671.8 788.753 2672.42 791.469 2673.39 794.069C2677.49 806.421 2683.06 818.455 2691.35 828.545C2699.64 838.634 2710.83 846.679 2723.59 849.662C2729.44 850.85 2735.39 851.478 2741.36 851.539C2750.5 851.875 2759.64 852.037 2768.78 852.025C2773.8 852.166 2778.82 851.835 2783.78 851.037C2794.23 849.025 2803.47 843.143 2812.4 837.377C2822.68 830.673 2833.97 822.612 2835.52 810.561C2836.64 801.846 2832.25 793.298 2832.25 784.516C2832.25 775.482 2836.87 767.169 2839.54 758.521C2843.74 744.797 2843.08 730.059 2837.68 716.755C2834.8 709.733 2830.61 703.129 2829.24 695.671C2828.15 689.822 2828.82 683.771 2827.84 677.922C2825.33 663.006 2811.94 651.542 2797.24 647.587C2785.89 644.536 2774.37 645.492 2762.95 647.587C2753.05 649.447 2744.08 645.391 2734.29 646.665Z" fill="#3F3D56"/>
<path opacity="0.7" d="M2737.4 771.594C2739.59 781.068 2737.93 791.019 2732.77 799.282C2730.04 803.209 2726.7 806.678 2722.86 809.556C2717.04 814.255 2710.42 817.887 2703.32 820.282C2707.75 823.742 2712.88 826.216 2718.36 827.539C2722.57 828.439 2726.86 828.955 2731.17 829.081C2752.81 830.225 2774.52 829.445 2796.02 826.751C2803.21 825.846 2810.71 824.606 2816.52 820.316C2817.03 820.001 2817.43 819.531 2817.66 818.975C2818.08 817.55 2816.38 816.477 2814.98 816.008C2808.04 813.662 2800.58 812.304 2794.59 808.114C2785.41 801.729 2781.57 789.98 2780.75 778.868C2779.92 767.756 2781.54 756.56 2780.44 745.465C2765.62 745.253 2750.81 745.683 2736 746.756C2734.31 746.873 2726.86 746.454 2725.99 747.879C2725.11 749.303 2729.14 753.376 2730.16 754.918C2733.59 759.981 2736.05 765.636 2737.4 771.594Z" fill="#FBBEBE"/>
<path opacity="0.1" d="M2757.92 771.946C2785.89 771.946 2808.56 749.435 2808.56 721.666C2808.56 693.897 2785.89 671.386 2757.92 671.386C2729.96 671.386 2707.28 693.897 2707.28 721.666C2707.28 749.435 2729.96 771.946 2757.92 771.946Z" fill="black"/>
<path opacity="0.7" d="M2757.92 770.17C2785.89 770.17 2808.56 747.658 2808.56 719.89C2808.56 692.121 2785.89 669.609 2757.92 669.609C2729.96 669.609 2707.28 692.121 2707.28 719.89C2707.28 747.658 2729.96 770.17 2757.92 770.17Z" fill="#FBBEBE"/>
<path opacity="0.7" d="M2829.01 904.954C2824.87 921.714 2822.25 939.211 2824.03 956.457C2825.14 967.418 2828.9 979.318 2829.38 990.53H2703.89C2703.89 984.698 2703.89 978.681 2703.79 972.664C2703.79 971.474 2703.79 970.301 2703.79 969.094C2703.79 967.552 2703.79 966.01 2703.79 964.452C2703.79 959.759 2703.79 955.116 2703.79 950.591C2703.79 942.429 2703.79 934.267 2702.93 926.155C2701.33 911.711 2697.96 897.515 2692.88 883.886C2692.53 882.881 2692.18 881.875 2691.8 880.886C2691.76 880.783 2691.72 880.677 2691.69 880.568C2691.3 879.562 2690.93 878.557 2690.54 877.534C2684.43 861.428 2677.46 844.685 2680.8 827.925C2681.51 824.529 2682.64 821.235 2684.17 818.12C2686.96 812.342 2690.99 807.248 2695.99 803.203L2696.48 802.801C2698.22 801.455 2700.06 800.245 2701.98 799.181C2702.96 798.634 2703.97 798.136 2705 797.689L2705.39 797.522C2707.73 796.501 2710.24 795.932 2712.79 795.846C2719.15 795.745 2724.87 799.349 2730.19 802.868L2730.61 803.153L2731.32 803.606L2732.13 804.142C2734.22 805.516 2736.35 806.891 2738.49 808.198L2739.52 808.818C2745.49 812.578 2751.9 815.579 2758.62 817.751C2768.74 820.801 2780.19 820.919 2789.46 815.841C2791.25 814.83 2792.94 813.658 2794.52 812.338C2795.51 811.532 2796.47 810.676 2797.37 809.773C2799.38 807.805 2801.26 805.711 2802.99 803.505C2805.44 808.265 2810.79 810.209 2815.23 813.293C2820.07 816.757 2823.97 821.366 2826.56 826.701C2827.3 828.142 2827.96 829.617 2828.55 831.109C2831.09 838.19 2832.79 845.542 2833.61 853.014C2834.84 860.339 2835.34 867.767 2835.08 875.188C2834.41 885.277 2831.44 895.099 2829.01 904.954Z" fill="#3F3D56"/>
<path opacity="0.7" d="M2712.97 808.607L2731.26 804.315C2733.89 803.698 2735.52 801.079 2734.9 798.467L2717.21 724.189C2716.59 721.577 2713.95 719.96 2711.32 720.577L2693.04 724.869C2690.41 725.486 2688.78 728.104 2689.4 730.717L2707.08 804.995C2707.71 807.607 2710.34 809.224 2712.97 808.607Z" fill="#FFD233"/>
<path opacity="0.7" d="M2712.58 808.715L2728.79 804.91C2731.42 804.292 2733.05 801.674 2732.43 799.062L2714.74 724.784C2714.12 722.171 2711.48 720.554 2708.85 721.172L2692.64 724.977C2690.01 725.595 2688.38 728.213 2689 730.825L2706.69 805.103C2707.31 807.716 2709.95 809.333 2712.58 808.715Z" fill="#EDEDF4"/>
<path opacity="0.7" d="M2704.71 747.239C2706.07 746.919 2706.54 744.002 2705.76 740.723C2704.98 737.445 2703.24 735.045 2701.88 735.365C2700.52 735.684 2700.05 738.601 2700.83 741.88C2701.61 745.159 2703.35 747.558 2704.71 747.239Z" fill="#FFD233"/>
<path opacity="0.7" d="M2753.75 990.53H2668.16L2671.06 982.15H2670.96C2667.87 982.355 2664.81 981.493 2662.3 979.712C2659.78 977.931 2657.96 975.34 2657.15 972.379C2656.64 970.234 2656.59 967.787 2655.06 966.195C2654.44 965.641 2653.78 965.137 2653.08 964.686C2650.31 962.524 2649.28 958.871 2648.71 955.418C2647.02 945.111 2647.83 934.585 2647.38 924.144C2646.87 912.412 2646.5 900.898 2645.47 889.317C2645.1 885.143 2644.64 880.937 2644.07 876.78C2642.71 866.924 2643.37 856.896 2646.01 847.299C2647.01 844.506 2647.58 841.579 2647.7 838.617C2647.7 837.042 2647.28 835.483 2647.36 833.925C2647.35 833.139 2647.54 832.362 2647.91 831.67C2648.29 830.978 2648.84 830.392 2649.5 829.969C2649.05 827.395 2649.11 824.758 2649.69 822.209C2650.27 819.66 2651.36 817.25 2652.88 815.12C2653.88 813.684 2655.17 812.464 2656.66 811.533C2659.87 809.656 2663.83 809.857 2667.53 809.388C2671.16 808.938 2674.71 808.014 2678.1 806.639C2679.3 806.17 2680.46 805.667 2681.64 805.131C2685.76 803.254 2689.78 800.974 2693.81 798.812L2694.66 798.36C2697.7 796.684 2700.75 795.192 2703.87 793.902L2704.26 793.751C2707.95 792.194 2711.84 791.183 2715.83 790.751C2719.73 790.494 2723.64 790.589 2727.52 791.036C2728.62 791.121 2729.68 791.454 2730.63 792.008C2732.06 792.923 2733.25 794.171 2734.09 795.645V795.645C2734.21 795.846 2734.33 796.03 2734.44 796.248C2735.92 799.263 2737.01 802.45 2737.68 805.734C2737.89 806.556 2738.07 807.41 2738.24 808.181C2738.65 810.159 2739 812.137 2739.29 814.131C2740.03 819.164 2740.49 824.233 2740.67 829.316C2740.99 836.64 2740.91 844.031 2740.88 851.372C2740.88 852.612 2740.88 853.836 2740.88 855.059C2740.89 858.668 2741.39 862.258 2742.36 865.735C2744.98 875.221 2745.25 885.16 2745.74 894.965C2746.86 917.935 2749.19 940.833 2752.71 963.563C2753.37 967.837 2754.06 972.094 2754.29 976.402C2754.56 981.118 2754.37 985.847 2753.75 990.53V990.53Z" fill="#6EA7E0"/>
<path opacity="0.7" d="M2735.27 867.595C2737.15 869.684 2738.84 871.926 2740.33 874.299C2741.03 875.422 2741.58 877.065 2740.57 877.92C2740.03 878.281 2739.38 878.458 2738.73 878.422L2726.65 878.925C2724.83 879.127 2722.99 878.962 2721.24 878.439C2718.94 877.315 2716.99 875.573 2715.62 873.411L2710.27 866.472C2708.72 864.746 2707.57 862.704 2706.9 860.489C2706.61 859.375 2706.7 858.201 2707.14 857.139C2707.58 856.077 2708.35 855.183 2709.34 854.59C2711.29 853.971 2713.39 854.115 2715.23 854.992C2718.85 856.215 2723.17 857.037 2726.39 859.115C2729.71 861.545 2732.7 864.396 2735.27 867.595V867.595Z" fill="#6EA7E0"/>
<path opacity="0.1" d="M2735.27 867.595C2737.15 869.684 2738.84 871.926 2740.33 874.299C2741.03 875.422 2741.58 877.065 2740.57 877.92C2740.03 878.281 2739.38 878.458 2738.73 878.422L2726.65 878.925C2724.83 879.127 2722.99 878.962 2721.24 878.439C2718.94 877.315 2716.99 875.573 2715.62 873.411L2710.27 866.472C2708.72 864.746 2707.57 862.704 2706.9 860.489C2706.61 859.375 2706.7 858.201 2707.14 857.139C2707.58 856.077 2708.35 855.183 2709.34 854.59C2711.29 853.971 2713.39 854.115 2715.23 854.992C2718.85 856.215 2723.17 857.037 2726.39 859.115C2729.71 861.545 2732.7 864.396 2735.27 867.595V867.595Z" fill="black"/>
<path opacity="0.1" d="M2728.42 868.4C2729.89 860.594 2731.91 852.899 2734.46 845.372C2735.88 841.761 2736.9 838.006 2737.5 834.176C2737.82 831.176 2737.5 828.143 2737.8 825.126C2738.04 822.528 2738.68 819.981 2739.07 817.4C2739.84 812.161 2739.52 806.822 2738.12 801.712C2737.03 797.639 2738.12 792.712 2735.46 789.41C2734.39 788.069 2732.96 787.03 2731.86 785.723C2731.25 785.115 2730.81 784.365 2730.57 783.542C2730.33 782.719 2730.31 781.849 2730.49 781.013C2734.23 781.864 2738.1 781.989 2741.89 781.382C2743.02 781.256 2744.1 780.878 2745.06 780.276C2745.54 779.969 2745.91 779.537 2746.15 779.027C2746.39 778.517 2746.48 777.951 2746.41 777.393C2746.23 776.86 2745.95 776.368 2745.57 775.945C2745.2 775.522 2744.74 775.177 2744.23 774.93C2740.88 772.875 2737.1 771.585 2733.18 771.153C2729.26 770.722 2725.29 771.158 2721.56 772.432C2721.43 772.132 2721.42 771.795 2721.53 771.485C2721.63 771.176 2721.85 770.916 2722.14 770.756C2722.66 770.465 2723.23 770.271 2723.83 770.186C2725.73 769.761 2727.49 768.876 2728.96 767.61C2730.44 766.344 2731.57 764.736 2732.27 762.929C2732.53 762.412 2732.59 761.813 2732.43 761.253C2732.01 759.996 2730.22 760.063 2728.92 760.382L2721.95 762.058C2720.6 762.321 2719.29 762.76 2718.05 763.365C2716.54 764.288 2715.18 765.455 2714.05 766.818C2710.39 770.74 2706.66 774.796 2704.63 779.756C2703.74 782.002 2703.2 784.382 2702.25 786.611C2701.41 788.904 2699.79 790.831 2697.66 792.058C2696.57 792.659 2695.69 793.585 2695.16 794.707C2694.62 795.828 2694.45 797.088 2694.67 798.31C2695.22 800.8 2696.31 803.141 2697.86 805.165C2700.46 809.187 2703.39 812.983 2706.63 816.511C2708.99 818.627 2711.01 821.085 2712.63 823.802C2713.63 825.813 2714.05 828.042 2714.93 830.104C2715.41 831.052 2715.78 832.053 2716.03 833.087C2716.14 833.832 2716.14 834.588 2716.03 835.333C2714.56 846.629 2706.12 855.847 2702.96 866.808C2702.77 867.344 2702.7 867.917 2702.76 868.484C2702.89 868.99 2703.12 869.465 2703.43 869.883C2703.75 870.3 2704.15 870.65 2704.6 870.914C2710.73 875.523 2718.22 877.886 2725.56 880.183C2726.82 876.335 2727.78 872.396 2728.42 868.4V868.4Z" fill="black"/>
<path opacity="0.7" d="M2727.39 867.88C2728.86 860.074 2730.88 852.379 2733.43 844.852C2734.86 841.25 2735.88 837.5 2736.47 833.673C2736.79 830.673 2736.47 827.623 2736.77 824.623C2737.01 822.025 2737.65 819.477 2738.04 816.896C2738.81 811.654 2738.5 806.309 2737.11 801.192C2736 797.136 2737.11 792.192 2734.43 788.89C2733.36 787.55 2731.95 786.527 2730.83 785.22C2730.22 784.614 2729.78 783.864 2729.54 783.039C2729.3 782.215 2729.28 781.345 2729.48 780.51C2733.22 781.355 2737.08 781.475 2740.86 780.862C2741.99 780.742 2743.07 780.37 2744.03 779.773C2744.5 779.465 2744.88 779.032 2745.12 778.522C2745.36 778.013 2745.45 777.448 2745.38 776.89C2745.21 776.354 2744.92 775.86 2744.55 775.436C2744.17 775.013 2743.72 774.669 2743.2 774.426C2739.85 772.37 2736.08 771.078 2732.16 770.644C2728.25 770.209 2724.28 770.642 2720.55 771.912C2720.41 771.616 2720.39 771.276 2720.49 770.963C2720.59 770.651 2720.82 770.39 2721.11 770.236C2721.63 769.949 2722.2 769.756 2722.8 769.667C2724.7 769.24 2726.46 768.352 2727.94 767.083C2729.41 765.814 2730.54 764.203 2731.24 762.393C2731.49 761.871 2731.55 761.275 2731.39 760.717C2730.97 759.476 2729.18 759.544 2727.88 759.862L2720.91 761.538C2719.56 761.819 2718.25 762.258 2717.01 762.845C2715.49 763.773 2714.14 764.939 2713.01 766.298C2709.34 770.236 2705.61 774.276 2703.6 779.237C2702.69 781.482 2702.15 783.862 2701.21 786.091C2700.37 788.389 2698.75 790.319 2696.62 791.538C2695.52 792.144 2694.65 793.073 2694.11 794.197C2693.57 795.321 2693.41 796.583 2693.63 797.807C2694.17 800.297 2695.26 802.638 2696.82 804.661C2699.41 808.685 2702.35 812.481 2705.6 816.008C2707.95 818.129 2709.97 820.586 2711.59 823.299C2712.58 825.31 2713.01 827.539 2713.88 829.584C2714.37 830.534 2714.74 831.534 2715 832.567C2715.11 833.317 2715.11 834.079 2715 834.829C2713.53 846.126 2705.11 855.327 2701.95 866.288C2701.75 866.823 2701.68 867.396 2701.73 867.964C2702 868.982 2702.66 869.854 2703.57 870.394C2709.7 874.987 2717.19 877.366 2724.54 879.663C2725.79 875.815 2726.75 871.875 2727.39 867.88Z" fill="#FBBEBE"/>
<path opacity="0.7" d="M2732.03 865.031C2732.28 865.145 2732.49 865.332 2732.62 865.568C2732.72 865.861 2732.72 866.179 2732.62 866.473C2730.93 871.506 2728.72 876.348 2726 880.92C2720.57 877.959 2715.25 874.78 2710.05 871.383C2708.75 870.67 2707.65 869.637 2706.86 868.383C2699.22 853.718 2726.95 862.115 2732.03 865.031Z" fill="#3F3D56"/>
<path opacity="0.1" d="M2701.48 872.154C2699.69 874.534 2697.61 876.68 2695.84 879.076C2692.9 883.526 2690.29 888.187 2688.04 893.021C2684.76 899.226 2680.8 905.05 2676.22 910.384C2671.62 915.764 2666.1 921.261 2665.61 928.3C2665.65 929.306 2665.43 930.305 2664.97 931.2C2664.34 931.837 2663.63 932.399 2662.87 932.876C2662.2 933.496 2661.81 934.652 2662.48 935.273C2659.83 935.541 2658.75 938.625 2658.25 941.289L2657.08 947.239C2656.71 948.787 2656.51 950.373 2656.51 951.966C2656.67 954.126 2657.2 956.244 2658.06 958.234C2660.83 965.555 2664.45 972.534 2668.83 979.033C2670.94 982.134 2673.37 985.251 2676.83 986.726C2680.09 987.82 2683.56 988.147 2686.96 987.681C2691.82 987.379 2697.49 986.592 2699.92 982.385C2701.46 979.72 2701.22 976.268 2702.91 973.67C2703.9 972.427 2704.97 971.257 2706.12 970.167C2707.93 967.859 2709.28 965.224 2710.09 962.407C2714.54 949.775 2718.11 936.849 2720.75 923.725C2721.46 919.288 2722.64 914.938 2724.28 910.753C2726.14 907.026 2728.31 903.465 2730.78 900.11C2735.12 893.59 2735.84 887.959 2738.77 880.735C2732.15 879.21 2729.09 874.853 2723.47 871.165C2718.15 867.679 2710.31 860.271 2704.7 857.59C2702.96 862.165 2704.52 868.082 2701.48 872.154Z" fill="black"/>
<path opacity="0.1" d="M2697.53 868.584C2695.74 870.964 2693.66 873.126 2691.89 875.506C2688.95 879.959 2686.34 884.626 2684.11 889.467C2680.81 895.663 2676.85 901.485 2672.29 906.831C2667.67 912.211 2662.16 917.708 2661.66 924.747C2661.7 925.753 2661.48 926.752 2661.02 927.647C2660.49 928.401 2659.6 928.77 2658.92 929.323C2658.25 929.876 2657.86 931.099 2658.53 931.719C2655.9 931.988 2654.8 935.071 2654.3 937.72L2653.13 943.669C2652.77 945.225 2652.57 946.815 2652.56 948.412C2652.72 950.573 2653.25 952.691 2654.11 954.681C2656.91 961.981 2660.54 968.937 2664.93 975.413C2667.04 978.513 2669.47 981.614 2672.93 983.106C2676.19 984.192 2679.66 984.519 2683.06 984.061C2687.92 983.743 2693.61 982.972 2696.03 978.765C2697.58 976.083 2697.33 972.647 2699.01 970.05C2699.99 968.798 2701.06 967.622 2702.22 966.53C2704.04 964.228 2705.38 961.599 2706.19 958.787C2710.64 946.152 2714.21 933.228 2716.87 920.105C2717.56 915.666 2718.74 911.316 2720.38 907.132C2722.24 903.4 2724.41 899.834 2726.88 896.473C2731.22 889.97 2730.97 886.099 2733.97 878.875C2727.35 877.367 2725.21 871.232 2719.57 867.529C2714.26 864.059 2706.41 856.635 2700.8 853.97C2698.93 858.612 2700.48 864.528 2697.53 868.584Z" fill="black"/>
<path opacity="0.7" d="M2699.69 870.361C2697.9 872.741 2695.82 874.903 2694.05 877.283C2691.11 881.739 2688.5 886.405 2686.25 891.244C2682.97 897.449 2679.01 903.273 2674.44 908.607C2669.83 913.987 2664.31 919.485 2663.82 926.524C2663.86 927.529 2663.64 928.528 2663.18 929.423C2662.55 930.06 2661.84 930.623 2661.08 931.099C2660.41 931.719 2660 932.876 2660.68 933.496C2658.04 933.764 2656.95 936.848 2656.44 939.513L2655.28 945.463C2654.91 947.013 2654.73 948.598 2654.72 950.189C2654.88 952.349 2655.41 954.468 2656.27 956.457C2659.08 963.783 2662.73 970.762 2667.14 977.256C2669.25 980.357 2671.68 983.474 2675.14 984.949C2678.4 986.047 2681.87 986.374 2685.27 985.904C2690.15 985.586 2695.82 984.815 2698.25 980.608C2699.79 977.927 2699.55 974.491 2701.24 971.893C2702.22 970.651 2703.3 969.48 2704.45 968.39C2706.25 966.076 2707.6 963.443 2708.41 960.63C2712.87 947.998 2716.44 935.073 2719.08 921.948C2719.78 917.512 2720.96 913.162 2722.59 908.976C2724.46 905.25 2726.64 901.689 2729.11 898.333C2733.44 891.81 2737.14 884.89 2740.15 877.668C2733.59 876.012 2727.37 873.209 2721.8 869.389C2716.48 865.903 2708.63 858.478 2703.03 855.813C2701.17 860.389 2702.73 866.305 2699.69 870.361Z" fill="#6EA7E0"/>
<path opacity="0.7" d="M2716.7 879.177C2718.68 879.177 2720.28 877.586 2720.28 875.624C2720.28 873.661 2718.68 872.071 2716.7 872.071C2714.73 872.071 2713.12 873.661 2713.12 875.624C2713.12 877.586 2714.73 879.177 2716.7 879.177Z" fill="#3F3D56"/>
<path opacity="0.7" d="M2705.49 896.523C2707.47 896.523 2709.07 894.932 2709.07 892.97C2709.07 891.008 2707.47 889.417 2705.49 889.417C2703.52 889.417 2701.92 891.008 2701.92 892.97C2701.92 894.932 2703.52 896.523 2705.49 896.523Z" fill="#3F3D56"/>
<path opacity="0.7" d="M2693.85 914.322C2695.82 914.322 2697.43 912.731 2697.43 910.769C2697.43 908.807 2695.82 907.216 2693.85 907.216C2691.87 907.216 2690.27 908.807 2690.27 910.769C2690.27 912.731 2691.87 914.322 2693.85 914.322Z" fill="#3F3D56"/>
<path opacity="0.7" d="M2876.27 990.53H2843.29C2843.37 988.747 2842.87 986.985 2841.87 985.502C2841.87 985.603 2841.87 985.703 2841.87 985.804C2841.71 987.355 2841.74 988.92 2841.97 990.463H2800.58C2800.61 985.732 2801.12 981.015 2802.1 976.385C2803.46 968.925 2804.23 961.371 2804.41 953.792C2804.61 944.44 2803.92 935.088 2803.87 925.736C2803.83 916.466 2804.42 907.203 2805.66 898.015C2806.79 889.635 2808.46 881.003 2807.08 872.59C2805.53 863.188 2804.19 853.668 2802.99 844.215C2802.99 843.88 2802.91 843.545 2802.86 843.193C2802.67 841.442 2802.32 839.713 2801.8 838.031C2801.31 836.606 2800.61 835.265 2799.99 833.891C2798.88 831.51 2797.93 829.058 2797.15 826.55C2795.73 821.895 2794.82 817.102 2794.44 812.254C2794.2 809.488 2790.37 807.008 2790.25 804.226C2790.24 804.17 2790.24 804.114 2790.25 804.058C2795.74 802.952 2805.44 801.594 2810.76 803.488C2816.08 805.382 2819.96 810.008 2825.26 811.751C2828.44 812.569 2831.72 812.969 2835.02 812.941C2837.16 812.996 2839.29 813.334 2841.35 813.947C2842.44 814.202 2843.39 814.876 2844 815.824C2844.06 815.943 2844.11 816.074 2844.13 816.209C2844.28 817.001 2844.15 817.819 2843.76 818.527C2843.37 819.234 2842.75 819.789 2842 820.097C2840.73 820.586 2839.35 820.753 2837.99 820.583V820.583L2836.82 820.466C2841.96 824.198 2846.97 828.109 2851.84 832.198L2853.43 833.539C2855.32 834.974 2856.89 836.776 2858.06 838.835C2859.06 841.335 2859.49 844.026 2859.32 846.712C2859.32 849.83 2859.32 852.964 2859.32 856.081C2859.32 862.098 2862.38 867.629 2863.44 873.562C2864.77 881.037 2865.43 888.646 2866.06 896.171C2866.41 900.579 2866.77 904.987 2866.94 909.395C2867.29 917.875 2868.78 926.323 2868.91 934.82C2868.91 937.434 2868.91 940.049 2869.15 942.664C2869.38 945.278 2869.82 947.692 2870.28 950.256C2871.27 955.72 2872.27 961.2 2873.28 966.664C2873.58 968.087 2873.74 969.535 2873.77 970.988V970.988C2873.44 973.044 2873.38 975.135 2873.6 977.206C2873.87 978.086 2874.21 978.943 2874.62 979.77C2875.92 983.202 2876.49 986.868 2876.27 990.53V990.53Z" fill="#6EA7E0"/>
<path opacity="0.7" d="M2759.95 699.191C2786.68 699.191 2808.34 690.824 2808.34 680.503C2808.34 670.183 2786.68 661.816 2759.95 661.816C2733.22 661.816 2711.55 670.183 2711.55 680.503C2711.55 690.824 2733.22 699.191 2759.95 699.191Z" fill="#3F3D56"/>
<path opacity="0.7" d="M2807.69 710.588C2807.59 708.894 2807.19 707.231 2806.5 705.677C2806.13 704.84 2805.65 704.052 2805.09 703.331C2799.01 695.554 2784.65 698.403 2784.65 698.403C2783.52 697.958 2782.36 697.594 2781.18 697.314C2779.12 696.743 2776.95 696.589 2774.82 696.859C2772.69 697.13 2770.64 697.82 2768.78 698.889C2766.02 700.558 2763.79 702.947 2762.31 705.794C2761.91 706.851 2761.57 707.931 2761.3 709.029C2761.07 709.951 2760.89 710.886 2760.76 711.828C2759.07 724.532 2768.63 732.258 2774.7 735.828C2776.98 737.155 2779.53 737.946 2782.17 738.141C2784.8 738.336 2787.44 737.929 2789.89 736.951C2794.45 735.199 2798.47 732.295 2801.56 728.527C2804.64 724.758 2806.68 720.256 2807.47 715.465C2807.59 714.548 2807.66 713.624 2807.67 712.699V712.699C2807.73 711.997 2807.73 711.291 2807.69 710.588V710.588ZM2801.34 715.767C2800.71 719.717 2799.07 723.44 2796.57 726.576C2794.08 729.712 2790.8 732.154 2787.08 733.666C2785.08 734.486 2782.91 734.828 2780.75 734.665C2778.59 734.502 2776.5 733.839 2774.65 732.728C2768.96 729.376 2759.58 721.331 2764.52 707.722C2764.52 707.722 2769.59 696.342 2782.67 701.554C2782.74 701.554 2803.67 697.297 2801.34 715.767Z" fill="#6EA7E0"/>
<path opacity="0.7" d="M2782.74 701.571C2782.74 701.571 2803.67 697.297 2801.31 715.767C2800.68 719.717 2799.04 723.44 2796.54 726.576C2794.04 729.712 2790.77 732.154 2787.04 733.666C2785.36 734.366 2783.56 734.725 2781.74 734.722C2779.23 734.717 2776.77 734.033 2774.62 732.745C2768.93 729.393 2759.54 721.331 2764.49 707.722C2764.59 707.722 2769.71 696.375 2782.74 701.571Z" fill="#3F3D56"/>
<path opacity="0.1" d="M2782.74 701.571C2782.74 701.571 2803.67 697.297 2801.31 715.767C2800.68 719.717 2799.04 723.44 2796.54 726.576C2794.04 729.712 2790.77 732.154 2787.04 733.666C2785.36 734.366 2783.56 734.725 2781.74 734.722C2779.23 734.717 2776.77 734.033 2774.62 732.745C2768.93 729.393 2759.54 721.331 2764.49 707.722C2764.59 707.722 2769.71 696.375 2782.74 701.571Z" fill="url(#paint3_radial)"/>
<path opacity="0.7" d="M2755.1 711.794C2754.98 710.852 2754.8 709.918 2754.56 708.996C2754.29 707.898 2753.96 706.817 2753.55 705.761C2751.93 702.645 2749.4 700.086 2746.29 698.42C2743.37 696.93 2740.04 696.397 2736.79 696.895C2734.88 697.155 2733.01 697.651 2731.22 698.37C2731.22 698.37 2716.85 695.52 2710.78 703.297C2710.21 704.019 2709.73 704.807 2709.36 705.644C2709.36 705.644 2709.36 705.644 2709.36 705.644C2708.68 707.198 2708.28 708.861 2708.18 710.554C2708.13 711.24 2708.13 711.929 2708.18 712.616C2708.2 715.463 2708.78 718.279 2709.87 720.912V721.029C2711.25 724.537 2713.35 727.726 2716.03 730.398C2717.04 731.433 2718.14 732.386 2719.3 733.247C2721.33 734.741 2723.54 735.974 2725.89 736.918C2728.34 737.898 2730.98 738.306 2733.61 738.111C2736.25 737.917 2738.8 737.124 2741.08 735.795C2747.24 732.225 2756.79 724.499 2755.1 711.794ZM2741.2 732.728C2739.34 733.839 2737.25 734.502 2735.1 734.665C2732.94 734.828 2730.77 734.486 2728.77 733.666C2725.04 732.153 2721.77 729.711 2719.27 726.576C2716.77 723.44 2715.12 719.717 2714.49 715.767C2712.18 697.331 2733.06 701.554 2733.06 701.554C2746.09 696.342 2751.21 707.722 2751.21 707.722C2756.27 721.331 2746.88 729.309 2741.2 732.728Z" fill="#6EA7E0"/>
<path opacity="0.7" d="M2733.11 701.571C2733.11 701.571 2712.18 697.297 2714.54 715.767C2715.17 719.718 2716.82 723.44 2719.32 726.576C2721.82 729.711 2725.09 732.154 2728.82 733.666C2730.5 734.366 2732.3 734.725 2734.12 734.722C2736.63 734.717 2739.1 734.033 2741.25 732.745C2746.94 729.393 2756.32 721.331 2751.37 707.722C2751.26 707.722 2746.14 696.375 2733.11 701.571Z" fill="#3F3D56"/>
<path opacity="0.1" d="M2733.11 701.571C2733.11 701.571 2712.18 697.297 2714.54 715.767C2715.17 719.718 2716.82 723.44 2719.32 726.576C2721.82 729.711 2725.09 732.154 2728.82 733.666C2730.5 734.366 2732.3 734.725 2734.12 734.722C2736.63 734.717 2739.1 734.033 2741.25 732.745C2746.94 729.393 2756.32 721.331 2751.37 707.722C2751.26 707.722 2746.14 696.375 2733.11 701.571Z" fill="url(#paint4_radial)"/>
<path opacity="0.7" d="M2762.87 709.012H2753.05V711.795H2762.87V709.012Z" fill="#6EA7E0"/>
</g>
<path d="M2362.53 1136.86C2358.56 1129.22 2349.78 1125.43 2341.59 1122.45C2333.41 1119.47 2324.71 1116.6 2316.11 1114.07C2326.57 1104.75 2334.86 1093.2 2342.39 1081.42C2346.69 1074.72 2350.83 1067.69 2352.89 1060.02C2354.95 1052.34 2354.74 1043.74 2350.66 1036.87C2345.81 1028.71 2336.23 1024.15 2326.67 1023.01C2317.12 1021.87 2307.5 1023.63 2298.08 1025.49C2291.33 1026.83 2284.57 1028.23 2277.82 1029.68C2281.77 1027.79 2285.62 1025.69 2289.35 1023.4C2303.26 1014.83 2315.48 1003.87 2327.08 992.441C2330.74 988.821 2334.62 984.564 2334.52 979.452C2334.42 974.726 2330.72 970.586 2326.27 968.809C2321.69 967.26 2316.76 967.068 2312.07 968.256C2305.73 969.599 2299.72 972.209 2294.43 975.929C2289.13 979.649 2284.65 984.4 2281.27 989.893C2278.94 993.748 2277.11 998.022 2273.89 1001.21C2270.06 1004.98 2264 1006.47 2259.74 1002.61C2258.27 1000.98 2257.19 999.03 2256.6 996.916L2256.82 996.631C2265.26 984.447 2265.89 967.921 2260.32 954.195C2256.08 943.72 2248.75 934.887 2241.39 926.138C2247.98 921.531 2255.17 917.822 2262.75 915.11C2264.84 914.51 2266.83 913.588 2268.64 912.378C2272.23 909.646 2273.33 904.753 2273.4 900.278C2273.47 895.803 2272.76 891.395 2273.7 887.087C2278.24 888.498 2282.96 889.216 2287.71 889.216C2296.64 889.235 2305.38 886.679 2312.87 881.859C2320.36 877.039 2326.28 870.162 2329.91 862.065C2338.27 859.919 2346.42 856.433 2352.45 850.333C2359.88 842.875 2364.45 828.394 2356.52 819.662C2353.9 816.796 2349.93 815.539 2346.73 813.477C2341.66 810.125 2338.29 806.019 2334.74 801.209C2319.06 780.242 2296.59 776.371 2271.29 779.17C2259.91 780.427 2248.5 782.522 2238.04 787.114C2230.03 790.892 2222.42 795.439 2215.31 800.69C2214.17 801.494 2213 802.366 2211.94 803.153C2209.9 796.919 2207.16 790.784 2205.54 785.857C2204.7 783.837 2204.35 781.65 2204.51 779.471C2205.05 775.801 2208.23 773.136 2211.26 770.823L2254.16 737.437C2258.67 733.719 2263.48 730.383 2268.55 727.465C2283.34 719.521 2302.04 718.565 2314.43 707.353C2318 704.091 2320.84 700.122 2322.77 695.701C2324.69 691.281 2325.66 686.509 2325.61 681.693C2325.47 674.771 2322.23 667.012 2315.48 665.101C2308.39 663.09 2301.47 668.269 2296 673.112C2278.06 688.984 2260.17 705.057 2240.15 718.364C2221.21 730.884 2200.34 740.89 2183.5 756.007C2180.42 758.575 2177.78 761.613 2175.66 765.007C2173.59 769.091 2172.16 773.466 2171.43 777.98L2167.93 794.304C2165.11 807.444 2162.87 822.679 2170.89 833.221C2170.38 834.217 2169.96 835.254 2169.64 836.321C2168.42 840.394 2170.65 844.701 2169.64 848.254C2168.52 852.243 2162.4 856.635 2159.66 859.802C2155.88 864.16 2152.23 868.668 2148.76 873.21C2135.34 891.292 2123.8 910.683 2114.34 931.083C2099.84 961.686 2089.02 993.799 2078.11 1025.83C2076.21 1031.49 2074.26 1037.27 2074.21 1043.26C2074.23 1048.68 2075.83 1053.99 2078.81 1058.54C2075.9 1075.52 2068.58 1091.74 2068.32 1109.12L2065.67 1110.31C2064.53 1126.45 2072.43 1142.54 2079.18 1157.24C2083.08 1165.62 2087.77 1174.66 2096.45 1178.09C2100.88 1179.77 2105.8 1179.87 2110.57 1179.77C2116.13 1179.77 2121.24 1179.87 2126.29 1179.99H2125.65C2119.57 1180.99 2112.82 1183.34 2110.46 1188.92C2109.47 1191.95 2109.24 1195.17 2109.76 1198.3C2111.72 1220.33 2113.67 1242.35 2115.62 1264.37C2116.04 1269.25 2116.65 1274.51 2120.01 1278.13C2123.08 1281.48 2127.83 1282.62 2132.33 1283.33C2140.78 1284.62 2149.37 1284.69 2157.84 1283.55C2161.4 1283.3 2164.83 1282.14 2167.81 1280.19C2170.63 1278.07 2172.39 1274.21 2171 1270.98C2169.05 1266.37 2162.46 1265.71 2159.19 1261.91C2154.9 1257 2157.75 1249.49 2160.74 1243.72C2161.2 1242.84 2161.74 1241.9 2162.29 1240.94C2165.27 1245.37 2168.81 1249.39 2172.83 1252.91C2176.12 1255.77 2180.83 1257.8 2184.64 1255.79C2194 1250.95 2203.4 1246.2 2212.87 1241.55L2215.06 1241.85C2233.42 1244.34 2251.94 1245.38 2270.46 1244.95C2273.98 1245.08 2277.49 1244.46 2280.74 1243.14C2283.9 1241.6 2286.43 1238.31 2285.94 1234.89C2285.37 1230.75 2280.96 1228.32 2276.98 1226.86C2269.47 1224.15 2261.6 1222.52 2253.62 1222.05C2263.96 1217.16 2274.33 1212.29 2284.73 1207.44C2295.11 1202.58 2305.59 1197.68 2316.8 1194.9C2331.16 1191.33 2347.99 1190.46 2357.31 1179.1C2362.9 1172.23 2364.26 1163.01 2364.86 1154.23C2365.18 1148.33 2365.26 1142.19 2362.53 1136.86ZM2216.67 1044.28C2211.6 1045.6 2205.88 1046.99 2200.09 1048.7C2199.55 1044.31 2198.7 1039.94 2198.16 1035.56C2197.87 1034.22 2197.99 1032.82 2198.52 1031.54C2199.37 1030.32 2200.58 1029.39 2201.98 1028.86L2221.29 1019.47C2221.3 1017.72 2220.95 1015.98 2220.26 1014.37C2219.57 1012.76 2218.55 1011.3 2217.27 1010.09C2219.14 1010.78 2221.09 1011.28 2223.06 1011.56C2225.02 1019.97 2228.71 1027.89 2233.9 1034.81C2235.02 1036.45 2236.57 1037.76 2238.39 1038.58L2238.69 1038.67C2231.33 1040.48 2223.99 1042.35 2216.67 1044.28Z" fill="url(#paint5_linear)"/>
<path d="M2235.12 858.009C2225.53 860.808 2214.86 858.495 2206.33 853.433C2204.64 852.246 2202.75 851.372 2200.75 850.852C2197.25 850.232 2193.79 852.21 2191.26 854.69C2183.04 862.802 2182.09 876.21 2186.35 886.903C2190.6 897.596 2199.11 906.06 2208.06 913.384C2215.27 919.29 2222.91 924.678 2230.9 929.507C2233.1 924.387 2236.3 919.752 2240.32 915.87C2244.34 911.989 2249.09 908.939 2254.31 906.898C2263.69 903.294 2270.56 893.624 2275.95 885.11C2279.93 878.858 2283.49 879.143 2279.9 872.657C2276.3 866.171 2270.7 861.059 2265.67 855.578C2262.72 852.506 2260.15 849.097 2258 845.422C2255.59 841.148 2256.13 838.366 2252.43 841.751C2249.99 844.014 2248.92 848.858 2246.19 851.506C2243.08 854.532 2239.28 856.764 2235.12 858.009V858.009Z" fill="#FABDBD"/>
<path d="M2205.69 791.689C2204.88 789.686 2204.54 787.525 2204.7 785.371C2205.22 781.75 2208.33 779.119 2211.21 776.84L2253.11 743.873C2257.52 740.214 2262.22 736.923 2267.17 734.035C2281.62 726.191 2299.88 725.252 2311.99 714.157C2315.48 710.923 2318.26 706.999 2320.13 702.638C2322.01 698.277 2322.95 693.575 2322.89 688.833C2322.76 682.012 2319.52 674.352 2312.98 672.442C2306.06 670.464 2299.31 675.592 2293.96 680.369C2276.44 696.023 2258.97 711.895 2239.4 724.967C2220.84 737.336 2200.58 747.208 2184.09 762.141C2181.08 764.675 2178.5 767.668 2176.44 771.007C2174.42 775.049 2173.02 779.372 2172.3 783.829L2168.93 799.935C2166.04 813.511 2163.71 829.349 2172.93 839.774C2174.27 841.442 2175.97 842.797 2177.9 843.744C2179.82 844.691 2181.94 845.207 2184.09 845.254C2187.14 844.905 2190.08 843.911 2192.71 842.338C2199.57 838.835 2211.91 835.483 2214 827.103C2216.63 816.393 2208.92 801.544 2205.69 791.689Z" fill="#FABDBD"/>
<path d="M2272.52 1004.19C2275.66 1001.04 2277.45 996.832 2279.73 993.028C2283.01 987.619 2287.37 982.933 2292.55 979.259C2297.72 975.584 2303.59 972.998 2309.81 971.659C2314.38 970.484 2319.21 970.683 2323.67 972.229C2325.88 973.034 2327.81 974.449 2329.24 976.307C2330.67 978.166 2331.54 980.39 2331.74 982.72C2331.82 987.748 2328.04 991.972 2324.45 995.542C2313.14 1006.82 2301.2 1017.65 2287.63 1026.1C2274.06 1034.54 2258.65 1040.58 2242.64 1041.63C2241.03 1041.83 2239.4 1041.68 2237.85 1041.2C2236.07 1040.37 2234.56 1039.09 2233.46 1037.48C2225.02 1026.65 2222.02 1012.64 2219.72 999.112C2220.55 1003.99 2248.13 992.626 2251.25 994.084C2255.81 996.212 2255.37 1002.61 2258.7 1005.66C2262.85 1009.39 2268.77 1007.93 2272.52 1004.19Z" fill="#FABDBD"/>
<path d="M2071.61 1111.05C2071.46 1112.75 2071.8 1114.46 2072.59 1115.98C2074.47 1118.91 2078.72 1118.95 2082.18 1118.44C2090.18 1117.09 2098.07 1115.2 2105.81 1112.79L2176.12 1092.68C2177.23 1092.46 2178.27 1091.97 2179.14 1091.24C2179.87 1090.36 2180.34 1089.3 2180.52 1088.17C2182.99 1078.11 2183.51 1067.68 2182.08 1057.42C2182 1055.95 2181.51 1054.52 2180.66 1053.31C2179.07 1051.87 2176.99 1051.09 2174.84 1051.13C2163.82 1050.03 2152.75 1049.53 2141.68 1049.63C2134.5 1049.94 2127.31 1049.79 2120.14 1049.17C2110.89 1048.07 2100.26 1042.8 2090.99 1043.61C2082.94 1044.3 2083.26 1050.53 2082.43 1057.13C2080.12 1075.34 2071.8 1092.52 2071.61 1111.05Z" fill="#FABDBD"/>
<path d="M2296.14 1028.22C2305.34 1026.38 2314.7 1024.62 2324.07 1025.76C2333.44 1026.9 2342.76 1031.39 2347.49 1039.45C2351.47 1046.24 2351.69 1054.7 2349.66 1062.3C2347.64 1069.89 2343.6 1076.78 2339.42 1083.43C2330.98 1096.67 2321.71 1109.61 2309.39 1119.33C2303.41 1124.06 2296.79 1127.96 2291.04 1132.96C2278.77 1143.6 2271.17 1158.47 2263.88 1172.93C2257.01 1186.56 2250.07 1200.4 2247.23 1215.37C2247.2 1215.94 2247.05 1216.51 2246.8 1217.03C2246.54 1217.55 2246.19 1218.02 2245.75 1218.4C2244.8 1218.84 2243.71 1218.91 2242.71 1218.6L2208.95 1212.42C2207.42 1212.32 2205.96 1211.73 2204.8 1210.74C2203.36 1209.06 2203.74 1206.65 2204.22 1204.54C2211.54 1173.3 2225.23 1143.89 2244.45 1118.12C2235.51 1126.5 2224.69 1132.65 2212.88 1136.04C2201.08 1139.44 2188.62 1139.99 2176.56 1137.65C2171.85 1136.96 2167.41 1135.06 2163.68 1132.12C2156.15 1125.41 2156.5 1113.68 2158.18 1103.81C2159.68 1094.99 2161.77 1086.28 2164.42 1077.73C2170.87 1057.23 2198.11 1051.69 2216.63 1046.66C2242.93 1039.69 2269.43 1033.54 2296.14 1028.22Z" fill="#3F3D56"/>
<path opacity="0.1" d="M2271.19 1100.48C2266.51 1102.65 2261.74 1105.02 2258.34 1108.86C2264.42 1101.92 2281.74 1098.68 2290.25 1095.45C2300.76 1091.54 2312.19 1087.59 2321.17 1080.67C2304.05 1086.05 2287.34 1092.67 2271.19 1100.48Z" fill="black"/>
<path d="M2161.92 1243.82C2158.99 1249.51 2156.22 1256.91 2160.4 1261.77C2163.65 1265.53 2170.08 1266.17 2172 1270.72C2173.33 1273.91 2171.63 1277.71 2168.88 1279.82C2165.98 1281.76 2162.62 1282.91 2159.14 1283.18C2150.87 1284.3 2142.47 1284.23 2134.22 1282.96C2129.82 1282.27 2125.19 1281.1 2122.19 1277.83C2118.9 1274.26 2118.32 1269.07 2117.9 1264.25C2116 1242.52 2114.1 1220.78 2112.2 1199.04C2111.66 1195.94 2111.89 1192.75 2112.85 1189.76C2115.13 1184.23 2121.72 1181.93 2127.66 1180.94C2134.32 1179.84 2141.1 1179.57 2147.83 1180.14C2152.37 1180.52 2157.16 1181.41 2160.52 1184.46C2164.3 1187.81 2165.5 1193.21 2166.48 1198.2C2168.02 1205.95 2172.32 1216.64 2171.41 1224.55C2170.67 1230.89 2164.79 1238.11 2161.92 1243.82Z" fill="#FFD233"/>
<path d="M2237.55 1222.74C2250.37 1221.07 2263.4 1222.52 2275.53 1226.98C2279.43 1228.42 2283.71 1230.8 2284.29 1234.89C2284.76 1238.24 2282.28 1241.6 2279.22 1243.04C2276.02 1244.35 2272.56 1244.97 2269.1 1244.83C2250.98 1245.32 2232.85 1244.36 2214.89 1241.96C2210.27 1241.34 2205.47 1240.56 2201.69 1237.84C2197.91 1235.13 2195.55 1229.91 2197.56 1225.74C2199.72 1221.28 2205.63 1219.87 2208.46 1215.82C2210.52 1212.89 2211.03 1208.59 2214.25 1207.05C2216.53 1205.96 2219.32 1206.78 2221.61 1207.61C2224.99 1208.8 2233.24 1209.99 2235.62 1212.8C2236.7 1213.99 2237.63 1222.72 2237.55 1222.74Z" fill="#FFD233"/>
<path d="M2286.03 893.674C2310.86 893.674 2330.99 873.684 2330.99 849.025C2330.99 824.366 2310.86 804.376 2286.03 804.376C2261.19 804.376 2241.06 824.366 2241.06 849.025C2241.06 873.684 2261.19 893.674 2286.03 893.674Z" fill="#FABDBD"/>
<path d="M2179.31 829.332C2186.55 824.087 2195.67 822.293 2204.48 820.634C2207.5 820.064 2210.84 819.545 2213.51 821.086C2215.41 822.438 2216.91 824.274 2217.85 826.399C2220.59 830.757 2222.63 835.521 2223.87 840.511C2224.82 845.539 2223.87 851.204 2220.35 854.875C2217.68 857.623 2213.85 858.981 2211.11 861.579C2207.33 865.283 2206.23 871.048 2207.08 876.244C2208.17 881.416 2210.19 886.35 2213.05 890.808C2219.67 902.345 2227.2 913.341 2235.57 923.691C2244.3 934.485 2254.14 944.842 2259.2 957.697C2264.64 971.256 2264.08 987.564 2255.83 999.597C2247.57 1011.63 2230.95 1018.03 2217.21 1012.9C2218.46 1014.1 2219.45 1015.54 2220.13 1017.13C2220.8 1018.72 2221.15 1020.43 2221.14 1022.16L2202.3 1031.58C2200.93 1032.1 2199.75 1033.02 2198.92 1034.22C2198.42 1035.48 2198.3 1036.87 2198.59 1038.2C2199.52 1045.8 2201.41 1053.4 2200.88 1061.06C2200.36 1068.72 2196.83 1076.78 2189.86 1080.1C2183.43 1083.16 2175.85 1081.54 2168.86 1080.1C2152.53 1076.83 2135.91 1075.1 2119.25 1074.95C2110.98 1074.95 2102.37 1075.15 2094.77 1071.97C2089.65 1069.72 2085.29 1066.06 2082.21 1061.42C2079.12 1056.77 2077.46 1051.35 2077.4 1045.79C2077.4 1039.89 2079.35 1034.19 2081.22 1028.59C2091.8 996.966 2102.42 965.256 2116.67 935.055C2125.9 914.929 2137.17 895.786 2150.29 877.92C2153.67 873.383 2157.22 868.953 2160.94 864.629C2163.59 861.528 2169.59 857.171 2170.67 853.232C2171.65 849.696 2169.47 845.472 2170.67 841.5C2172.16 836.63 2175.19 832.365 2179.31 829.332V829.332Z" fill="#FFD233"/>
<path d="M2069.03 1112.02C2088.75 1102.99 2108.5 1093.94 2129.01 1086.88C2144.2 1081.7 2160.96 1077.68 2175.8 1083.53C2180.22 1085.21 2184.24 1087.86 2188.56 1089.93C2202.93 1096.86 2219.35 1097.86 2235.23 1099.62C2270.57 1103.54 2305.29 1111.7 2338.64 1123.92C2346.64 1126.86 2355.22 1130.63 2359.08 1138.15C2361.75 1143.35 2361.68 1149.47 2361.29 1155.28C2360.7 1163.95 2359.37 1173.06 2353.92 1179.83C2344.89 1191.06 2328.45 1191.9 2314.42 1195.44C2303.53 1198.19 2293.3 1203.01 2283.16 1207.81C2250.32 1223.34 2217.49 1238.88 2185.25 1255.74C2181.45 1257.73 2176.81 1255.74 2173.66 1252.91C2163.8 1244.26 2157.21 1232.36 2153.4 1219.86C2149.58 1207.35 2148.49 1194.2 2148.25 1181.16C2135.66 1181.16 2125.41 1180.59 2112.8 1180.62C2108.14 1180.62 2103.33 1180.62 2099.01 1178.95C2090.57 1175.59 2085.95 1166.61 2082.13 1158.36C2075.58 1143.77 2067.9 1127.88 2069.03 1112.02Z" fill="#3F3D56"/>
<path opacity="0.1" d="M2298.11 1158.47C2289.22 1154.18 2278.94 1154.06 2269.04 1154.16C2263.02 1154.04 2256.99 1154.49 2251.05 1155.5C2241.77 1157.28 2233.33 1161.72 2224.7 1165.32C2203.69 1174.06 2181.11 1178.47 2158.33 1178.26" fill="black"/>
<path d="M2349.24 855.327C2342.83 861.813 2333.95 865.383 2325.02 867.394C2316.09 869.406 2306.91 870.227 2298.01 872.188C2286.99 874.601 2274.9 880.4 2272.42 891.344C2271.44 895.652 2272.15 900.143 2272.08 904.568C2272.02 908.993 2270.95 913.803 2267.44 916.518C2265.67 917.704 2263.73 918.609 2261.68 919.2C2225.68 932.155 2199.84 969.027 2200.14 1007.06C2194.49 1003.8 2189.66 999.32 2186 993.952C2182.34 988.583 2179.95 982.464 2179.01 976.05C2179.01 987.882 2168.88 1000 2174.53 1010.41C2168.16 1006.31 2162.72 1000.93 2158.56 994.626C2154.4 988.32 2151.61 981.222 2150.37 973.785C2149.13 966.348 2149.47 958.736 2151.36 951.435C2153.25 944.135 2156.65 937.305 2161.35 931.384C2165.89 925.652 2171.48 920.909 2176.37 915.429C2183.07 907.724 2188.09 898.733 2191.13 889.015C2194.17 879.298 2195.17 869.062 2194.05 858.947C2193.07 850.333 2190.53 841.617 2192.36 833.17C2195.01 821.438 2205.39 813.26 2215.26 806.354C2222.19 801.168 2229.62 796.676 2237.44 792.946C2247.67 788.421 2258.81 786.242 2269.92 785.086C2294.63 782.321 2316.58 786.142 2331.89 806.874C2335.4 811.634 2338.64 815.74 2343.6 818.991C2346.73 821.019 2350.61 822.343 2353.16 825.092C2360.97 833.656 2356.55 847.97 2349.24 855.327Z" fill="#3F3D56"/>
<path d="M2003.15 1246.41C2027.46 1246.41 2047.17 1242.65 2047.17 1238.01C2047.17 1233.37 2027.46 1229.61 2003.15 1229.61C1978.84 1229.61 1959.13 1233.37 1959.13 1238.01C1959.13 1242.65 1978.84 1246.41 2003.15 1246.41Z" fill="#FFD233"/>
<path d="M2002.42 1241.09C2005.26 1241.09 2007.56 1238.11 2007.56 1234.44C2007.56 1230.76 2005.26 1227.79 2002.42 1227.79C1999.59 1227.79 1997.29 1230.76 1997.29 1234.44C1997.29 1238.11 1999.59 1241.09 2002.42 1241.09Z" fill="#3F3D56"/>
<path d="M2002.42 1232.95C2005.26 1232.95 2007.56 1229.97 2007.56 1226.29C2007.56 1222.62 2005.26 1219.64 2002.42 1219.64C1999.59 1219.64 1997.29 1222.62 1997.29 1226.29C1997.29 1229.97 1999.59 1232.95 2002.42 1232.95Z" fill="#3F3D56"/>
<path d="M2002.42 1224.8C2005.26 1224.8 2007.56 1221.82 2007.56 1218.15C2007.56 1214.47 2005.26 1211.49 2002.42 1211.49C1999.59 1211.49 1997.29 1214.47 1997.29 1218.15C1997.29 1221.82 1999.59 1224.8 2002.42 1224.8Z" fill="#3F3D56"/>
<path d="M2002.42 1216.67C2005.26 1216.67 2007.56 1213.69 2007.56 1210.02C2007.56 1206.34 2005.26 1203.37 2002.42 1203.37C1999.59 1203.37 1997.29 1206.34 1997.29 1210.02C1997.29 1213.69 1999.59 1216.67 2002.42 1216.67Z" fill="#3F3D56"/>
<path d="M2002.42 1208.53C2005.26 1208.53 2007.56 1205.55 2007.56 1201.87C2007.56 1198.2 2005.26 1195.22 2002.42 1195.22C1999.59 1195.22 1997.29 1198.2 1997.29 1201.87C1997.29 1205.55 1999.59 1208.53 2002.42 1208.53Z" fill="#3F3D56"/>
<path d="M2002.42 1200.38C2005.26 1200.38 2007.56 1197.4 2007.56 1193.73C2007.56 1190.05 2005.26 1187.07 2002.42 1187.07C1999.59 1187.07 1997.29 1190.05 1997.29 1193.73C1997.29 1197.4 1999.59 1200.38 2002.42 1200.38Z" fill="#3F3D56"/>
<path d="M2002.42 1192.24C2005.26 1192.24 2007.56 1189.26 2007.56 1185.58C2007.56 1181.91 2005.26 1178.93 2002.42 1178.93C1999.59 1178.93 1997.29 1181.91 1997.29 1185.58C1997.29 1189.26 1999.59 1192.24 2002.42 1192.24Z" fill="#3F3D56"/>
<path d="M2021.6 1129.86C2022.3 1128.99 2022.94 1128.07 2023.51 1127.11L2010 1124.91L2024.55 1125.01C2025.95 1121.99 2026.71 1118.73 2026.79 1115.41C2026.87 1112.09 2026.27 1108.79 2025.03 1105.71L2005.5 1115.76L2023.51 1102.6C2021.83 1099.69 2019.56 1097.15 2016.85 1095.15C2014.14 1093.14 2011.04 1091.72 2007.74 1090.96C2004.45 1090.2 2001.03 1090.13 1997.71 1090.74C1994.39 1091.35 1991.23 1092.64 1988.43 1094.53C1985.63 1096.41 1983.25 1098.85 1981.45 1101.69C1979.64 1104.53 1978.45 1107.7 1977.94 1111.02C1977.43 1114.34 1977.61 1117.73 1978.48 1120.97C1979.35 1124.22 1980.89 1127.25 1982.99 1129.87C1981.9 1131.26 1980.97 1132.75 1980.19 1134.33L1997.68 1143.35L1979.11 1137.13C1977.8 1140.97 1977.48 1145.08 1978.17 1149.07C1978.86 1153.07 1980.54 1156.84 1983.06 1160.02C1980.22 1163.62 1978.44 1167.94 1977.95 1172.48C1977.46 1177.03 1978.27 1181.62 1980.28 1185.74C1982.29 1189.85 1985.43 1193.32 1989.33 1195.74C1993.24 1198.17 1997.75 1199.46 2002.36 1199.46C2006.96 1199.46 2011.47 1198.17 2015.38 1195.74C2019.28 1193.32 2022.42 1189.85 2024.43 1185.74C2026.44 1181.62 2027.25 1177.03 2026.76 1172.48C2026.27 1167.94 2024.5 1163.62 2021.65 1160.02C2025.06 1155.72 2026.91 1150.41 2026.91 1144.94C2026.91 1139.47 2025.06 1134.16 2021.65 1129.86H2021.6Z" fill="#FFD233"/>
<path opacity="0.1" d="M1977.76 1144.94C1977.75 1150.41 1979.6 1155.73 1983.01 1160.02C1980.17 1163.62 1978.39 1167.94 1977.9 1172.48C1977.41 1177.03 1978.22 1181.62 1980.23 1185.74C1982.24 1189.85 1985.38 1193.32 1989.28 1195.74C1993.19 1198.17 1997.7 1199.46 2002.31 1199.46C2006.91 1199.46 2011.42 1198.17 2015.33 1195.74C2019.23 1193.32 2022.37 1189.85 2024.38 1185.74C2026.39 1181.62 2027.2 1177.03 2026.71 1172.48C2026.22 1167.94 2024.45 1163.62 2021.6 1160.02C2024.89 1155.85 1977.76 1142.19 1977.76 1144.94Z" fill="black"/>
<defs>
<linearGradient id="paint0_linear" x1="2729.89" y1="1228" x2="2729.89" y2="190.558" gradientUnits="userSpaceOnUse">
<stop stop-color="#808080" stop-opacity="0.25"/>
<stop offset="0.54" stop-color="#808080" stop-opacity="0.12"/>
<stop offset="1" stop-color="#808080" stop-opacity="0.1"/>
</linearGradient>
<linearGradient id="paint1_linear" x1="-7408.87" y1="4038.29" x2="-7348.1" y2="4038.29" gradientUnits="userSpaceOnUse">
<stop stop-color="#808080" stop-opacity="0.25"/>
<stop offset="0.54" stop-color="#808080" stop-opacity="0.12"/>
<stop offset="1" stop-color="#808080" stop-opacity="0.1"/>
</linearGradient>
<linearGradient id="paint2_linear" x1="144608" y1="226611" x2="144608" y2="154816" gradientUnits="userSpaceOnUse">
<stop stop-color="#808080" stop-opacity="0.25"/>
<stop offset="0.54" stop-color="#808080" stop-opacity="0.12"/>
<stop offset="1" stop-color="#808080" stop-opacity="0.1"/>
</linearGradient>
<radialGradient id="paint3_radial" cx="0" cy="0" r="1" gradientUnits="userSpaceOnUse" gradientTransform="translate(2782.35 717.459) scale(18.298 18.1678)">
<stop stop-color="white"/>
<stop offset="1"/>
</radialGradient>
<radialGradient id="paint4_radial" cx="0" cy="0" r="1" gradientUnits="userSpaceOnUse" gradientTransform="translate(-160178 17562.6) rotate(180) scale(416.372 374.121)">
<stop stop-color="white"/>
<stop offset="1"/>
</radialGradient>
<linearGradient id="paint5_linear" x1="60317.9" y1="398516" x2="113462" y2="398516" gradientUnits="userSpaceOnUse">
<stop stop-color="#808080" stop-opacity="0.25"/>
<stop offset="0.54" stop-color="#808080" stop-opacity="0.12"/>
<stop offset="1" stop-color="#808080" stop-opacity="0.1"/>
</linearGradient>
</defs>
</svg>
