<svg width="121" height="83" viewBox="0 0 121 83" fill="none" xmlns="http://www.w3.org/2000/svg">
<g clip-path="url(#clip0)">
<path d="M21.874 77.7631C33.8614 77.7438 43.5781 77.0967 43.5769 76.3176C43.5756 75.5385 33.8569 74.9225 21.8695 74.9418C9.88204 74.961 0.16532 75.6082 0.166571 76.3873C0.167821 77.1663 9.88656 77.7823 21.874 77.7631Z" fill="#E5E5E5"/>
<path d="M67.7862 59.2787C77.1987 59.2636 84.8282 58.7555 84.8272 58.1438C84.8262 57.532 77.1951 57.0484 67.7827 57.0635C58.3703 57.0786 50.7408 57.5867 50.7418 58.1985C50.7427 58.8102 58.3738 59.2938 67.7862 59.2787Z" fill="#E5E5E5"/>
<path d="M98.6386 78.4518C110.532 78.4328 120.17 76.7136 120.167 74.6119C120.163 72.5103 110.519 70.8221 98.6264 70.8412C86.7334 70.8603 77.095 72.5794 77.0984 74.6811C77.1018 76.7827 86.7457 78.4709 98.6386 78.4518Z" fill="#E5E5E5"/>
<path d="M25.0924 37.9424L27.5364 37.262C27.5364 37.262 28.4937 37.0709 27.9088 35.2012C27.3238 33.3316 26.1637 33.8548 26.1637 33.8548L23.9956 34.4847L23.1396 34.7491L24.344 36.4387L24.445 37.5649L25.0924 37.9424Z" fill="#3F3D56"/>
<path d="M20.3698 33.0025L19.603 36.0655L23.532 39.8731L23.8697 39.9579L24.7708 39.7047L25.5377 36.6419L24.7609 35.8251L25.5548 35.6171L23.8606 33.9722L22.9765 34.1578L22.2673 33.4537L22.7459 33.2624L22.7911 33.0823L22.2113 32.6259L20.3698 33.0025Z" fill="#3F3D56"/>
<path d="M24.0509 37.3227L23.5434 39.3495L21.2018 37.1359L21.7881 35.0808L24.0509 37.3227Z" fill="#0080FF"/>
<path d="M20.3699 33.0025L20.2623 33.432L24.1692 37.2326L24.507 37.3172L25.38 37.081L25.4281 37.08L25.5378 36.6419L24.761 35.8251L25.5549 35.6171L23.8606 33.9722L22.9766 34.1578L22.2673 33.4537L22.7459 33.2624L22.7912 33.0823L22.2114 32.6259L20.3699 33.0025Z" stroke="#3F3D56" stroke-miterlimit="10"/>
<path d="M22.4899 33.0427C22.5195 32.9245 22.4024 32.7934 22.2282 32.7498C22.0541 32.7062 21.8889 32.7667 21.8594 32.8848C21.8298 33.003 21.9469 33.1341 22.1211 33.1777C22.2952 33.2213 22.4604 33.1609 22.4899 33.0427Z" fill="#6EA7E0"/>
<path d="M24.9719 36.3207C25.0015 36.2025 24.8843 36.0714 24.7102 36.0278C24.536 35.9842 24.3709 36.0447 24.3413 36.1628C24.3117 36.281 24.4289 36.4121 24.603 36.4557C24.7772 36.4993 24.9423 36.4389 24.9719 36.3207Z" fill="#6EA7E0"/>
<path d="M26.7162 41.758L26.1833 39.9458C26.1833 39.9458 27.569 36.6413 25.9701 36.3216C24.3711 36.0018 24.2645 39.4128 24.2645 39.4128L24.9041 41.4382L26.7162 41.758Z" fill="#FFB6B6"/>
<path d="M16.8207 38.2345C19.1593 38.2345 21.055 36.3387 21.055 34.0002C21.055 31.6617 19.1593 29.7659 16.8207 29.7659C14.4822 29.7659 12.5864 31.6617 12.5864 34.0002C12.5864 36.3387 14.4822 38.2345 16.8207 38.2345Z" fill="#FFB6B6"/>
<path d="M18.1907 36.9891C18.1907 36.9891 18.4398 40.1026 19.0625 40.3516C19.6852 40.6007 13.4952 42.3443 13.4952 42.3443L15.3633 40.2271C15.3633 40.2271 14.5791 36.9891 13.7074 36.2419L18.1907 36.9891Z" fill="#FFB6B6"/>
<path d="M24.158 40.7986L25.8635 40.5854C25.8635 40.5854 27.8888 41.6514 27.8888 43.0371C27.8888 44.4229 29.0614 46.6614 29.0614 46.6614C29.0614 46.6614 29.9141 49.6461 27.9954 49.8593C26.0767 50.0724 24.3712 46.6614 24.3712 46.6614L24.158 40.7986Z" fill="#6EA7E0"/>
<path d="M25.1173 57.7474L28.5555 55.3789C29.0993 54.9973 29.7447 54.787 30.4089 54.775C31.0731 54.763 31.7257 54.9498 32.2829 55.3115C32.7567 55.6273 33.112 56.0419 33.112 56.5749C33.112 58.1738 29.5943 61.9047 29.5943 61.9047C29.5943 61.9047 26.9294 67.7675 24.3711 67.9806C22.6882 68.1333 21.0155 68.3824 19.3611 68.7268C19.3611 68.7268 20.5337 72.9907 19.8941 74.1632C19.2545 75.3358 16.8028 76.7215 16.5896 76.6149C16.3764 76.5083 13.3917 73.7368 12.1126 69.7928C10.8334 65.8487 9.98067 62.864 11.1532 62.6508C12.3258 62.4376 25.1173 57.7474 25.1173 57.7474Z" fill="#2F2E41"/>
<path d="M32.7922 56.255C32.7922 56.255 33.5384 56.1484 33.4318 57.9606C33.3252 59.7727 33.0054 66.2751 32.4724 67.5542C31.9394 68.8334 31.8328 70.3257 32.046 70.8587C32.2592 71.3917 32.6856 72.2445 31.9394 72.3511C31.1933 72.4577 28.102 72.0313 27.7822 71.9247C27.4624 71.8181 29.0614 67.6608 28.8482 67.4476C28.635 67.2345 28.4218 62.2244 28.4218 62.2244L32.7922 56.255Z" fill="#2F2E41"/>
<path d="M31.7262 72.0313C31.7262 72.0313 33.5384 71.4983 33.7515 72.6708C33.7515 72.6708 34.0713 74.483 32.6856 75.1225C31.7913 75.5452 30.9354 76.0445 30.1273 76.6149C30.1273 76.6149 27.8888 77.4676 27.7822 76.4017C27.6756 75.3357 28.2086 71.4983 28.2086 71.4983L31.7262 72.0313Z" fill="#2F2E41"/>
<path d="M19.6809 73.3105L16.2698 70.539C16.2698 70.539 16.9094 73.95 16.0566 74.5896L15.6671 75.7284L16.7579 76.6207C16.7579 76.6207 20.1073 76.082 19.6809 73.3105Z" fill="#2F2E41"/>
<path d="M14.8841 68.6202C14.8841 68.6202 17.1226 69.2598 16.8028 71.4983C16.483 73.7368 16.073 76.1688 16.073 76.1688C16.073 76.1688 15.95 82.1579 14.3511 82.5843C12.7522 83.0107 12.3258 82.1579 12.3258 82.1579C12.3258 82.1579 10.5082 77.4779 11.0466 76.0819C11.6983 74.3923 12.6374 72.4951 12.3258 71.9247C12.0191 71.3634 12.5389 68.3004 14.8841 68.6202Z" fill="#2F2E41"/>
<path d="M13.6049 39.1997C13.6049 39.1997 14.4576 39.3063 15.8434 39.5195C17.2292 39.7327 18.1885 38.6667 18.9347 38.8799C19.6809 39.0931 25.8634 40.5854 25.8634 40.5854L25.3287 44.6853C25.1534 46.029 24.7181 47.3158 24.1604 48.5509C23.2613 50.5424 24.5935 56.7812 25.8634 57.9606C26.968 58.9864 28.4218 59.2397 26.8228 61.0519C25.2239 62.864 22.4524 64.4629 16.8028 63.93C11.1532 63.397 10.407 63.5036 10.407 62.6508C10.407 61.798 12.4176 50.6055 11.778 49.9659C11.1384 49.3263 10.8186 48.6867 10.8186 48.3669C10.8186 48.1532 10.1518 45.7484 9.70963 44.1773C9.38843 43.0684 9.50795 41.8783 10.0432 40.8554C10.2434 40.4809 10.4722 40.1933 10.712 40.159C11.4582 40.0524 10.94 39.5195 11.473 39.5195C12.0059 39.5195 12.3257 39.6261 12.6455 39.5195L13.6049 39.1997Z" fill="#6EA7E0"/>
<path d="M21.775 31.1441C21.775 31.1441 21.6786 25.9116 16.5426 28.3885C16.5426 28.3885 12.5934 28.2493 12.0407 33.2448L11.5063 38.4748L12.0787 38.0445L12.4623 38.6359L13.5082 38.7428L13.8136 37.8228L14.1756 38.8321L22.5561 38.4391C22.5561 38.4391 18.5347 36.7963 17.8987 32.8841L18.7129 33.5249L21.775 31.1441Z" fill="#2F2E41"/>
<path d="M12.1223 31.1901C13.2816 31.1901 14.2215 30.2502 14.2215 29.0909C14.2215 27.9315 13.2816 26.9917 12.1223 26.9917C10.9629 26.9917 10.0231 27.9315 10.0231 29.0909C10.0231 30.2502 10.9629 31.1901 12.1223 31.1901Z" fill="#2F2E41"/>
<path d="M14.1873 28.2673C14.0756 27.7454 13.7692 27.2857 13.3304 26.9819C12.8916 26.678 12.3535 26.5529 11.8257 26.6319C11.8678 26.6202 11.9093 26.6073 11.9526 26.598C12.2222 26.5405 12.5005 26.5365 12.7716 26.5865C13.0427 26.6365 13.3013 26.7394 13.5326 26.8893C13.764 27.0392 13.9635 27.2332 14.1199 27.4602C14.2763 27.6873 14.3864 27.9429 14.444 28.2125C14.5015 28.4821 14.5055 28.7604 14.4555 29.0315C14.4055 29.3026 14.3026 29.5612 14.1527 29.7925C14.0028 30.0238 13.8088 30.2234 13.5818 30.3798C13.3547 30.5361 13.0991 30.6462 12.8295 30.7038C12.7862 30.7131 12.7431 30.7183 12.6998 30.7248C13.2139 30.5813 13.6539 30.2472 13.9303 29.7906C14.2067 29.334 14.2986 28.7893 14.1873 28.2673Z" fill="#2F2E41"/>
<path d="M65.5499 13.5577C67.4609 13.5577 69.0101 12.0085 69.0101 10.0975C69.0101 8.18647 67.4609 6.63729 65.5499 6.63729C63.6389 6.63729 62.0897 8.18647 62.0897 10.0975C62.0897 12.0085 63.6389 13.5577 65.5499 13.5577Z" fill="#2F2E41"/>
<path d="M67.3717 12.4011C67.3717 12.4011 67.3196 14.537 67.528 14.5891C67.7364 14.6412 64.6628 15.4747 64.6628 15.4747L64.3502 12.5574L67.3717 12.4011Z" fill="#FFB8B8"/>
<path d="M43.0958 30.6341C43.0958 30.6341 40.8036 30.6341 40.7515 30.3737C40.6994 30.1132 40.2306 32.5095 40.2306 32.5095L41.1683 32.8221C41.1683 32.8221 42.9395 32.0407 43.0958 32.0407C43.2521 32.0407 43.0958 30.6341 43.0958 30.6341Z" fill="#FFB8B8"/>
<path d="M40.5952 31.5718C40.5952 31.5718 41.012 30.1653 41.5329 30.1132C41.5329 30.1132 39.7617 28.9671 39.7096 28.6025C39.6575 28.2378 39.0324 27.3001 38.7719 27.6127C38.5114 27.9252 38.5114 32.8742 38.9803 33.3951C39.4491 33.9161 41.5329 32.6629 41.5329 32.6629C41.5329 32.6629 40.2305 32.0928 40.5952 31.5718Z" fill="#2F2E41"/>
<path d="M68.8824 51.5241L69.2991 53.7641L67.3717 54.0766V51.5241H68.8824Z" fill="#FFB8B8"/>
<path d="M68.8824 53.5036C68.8824 53.5036 69.195 52.5138 69.4034 52.6701C69.6118 52.8264 69.9243 53.8162 69.8722 54.0766C69.8201 54.3371 69.4555 56.3688 69.6118 56.7334C69.768 57.0981 68.8303 58.9735 67.6322 58.8172C66.434 58.6609 66.5382 57.619 66.5382 57.619L66.9549 56.0041L67.1112 53.4515C67.1112 53.4515 68.4657 53.2431 68.8824 53.5036Z" fill="#2F2E41"/>
<path d="M66.7604 7.88747C67.5512 7.88747 68.1922 7.24643 68.1922 6.45567C68.1922 5.6649 67.5512 5.02386 66.7604 5.02386C65.9697 5.02386 65.3286 5.6649 65.3286 6.45567C65.3286 7.24643 65.9697 7.88747 66.7604 7.88747Z" fill="#2F2E41"/>
<path d="M68.6694 5.68011C68.6694 5.3262 68.5383 4.98483 68.3014 4.72186C68.0646 4.45889 67.7387 4.29295 67.3867 4.25605C67.4363 4.25091 67.4861 4.24832 67.5359 4.24831C67.9154 4.24866 68.2792 4.39967 68.5475 4.66814C68.8157 4.93662 68.9664 5.30061 68.9664 5.68012C68.9664 6.05963 68.8157 6.42361 68.5475 6.69209C68.2792 6.96056 67.9154 7.11157 67.5359 7.11192C67.4861 7.1119 67.4363 7.10932 67.3867 7.10418C67.7387 7.06728 68.0646 6.90134 68.3014 6.63837C68.5383 6.3754 68.6694 6.03403 68.6694 5.68011Z" fill="#2F2E41"/>
<path d="M65.5483 13.8597C66.7567 13.8597 67.7363 12.8801 67.7363 11.6718C67.7363 10.4634 66.7567 9.48379 65.5483 9.48379C64.3399 9.48379 63.3604 10.4634 63.3604 11.6718C63.3604 12.8801 64.3399 13.8597 65.5483 13.8597Z" fill="#FFB8B8"/>
<path d="M69.8722 26.8833C69.8722 26.8833 69.7681 29.4881 69.3513 30.8425C68.9345 32.197 67.432 41.8431 67.7446 42.5724C68.0572 43.3017 69.6639 51.3677 69.2992 51.8366C68.9345 52.3054 67.2154 52.1491 67.2154 52.1491L64.8794 42.364C64.8794 42.364 65.34 31.5718 61.485 31.3114C57.6301 31.0509 51.3266 30.8946 51.3266 30.8946C51.3266 30.8946 47.2633 32.0928 45.44 32.0407C43.6167 31.9886 42.5748 32.5096 42.5748 32.5096L42.2622 30.3737L50.3368 28.6025C50.3368 28.6025 57.7342 26.0498 61.7976 26.7271C65.861 27.4043 69.8722 26.8833 69.8722 26.8833Z" fill="#2F2E41"/>
<path d="M66.9549 13.9118C66.9549 13.9118 67.58 13.5472 67.7363 13.9118C67.8926 14.2765 68.9866 14.5891 69.4033 14.2765C69.8201 13.9639 70.862 14.3807 70.862 14.3807L72.0081 17.7668C72.0081 17.7668 71.435 20.6841 70.9141 22.299C70.3931 23.914 70.1847 27.248 70.3931 27.5606C70.6015 27.8732 66.2256 29.1234 64.0897 28.342C61.9538 27.5606 61.485 26.675 61.485 26.675C61.485 26.675 63.8292 23.3409 63.0478 21.7781C62.2664 20.2153 62.8915 18.444 62.8915 18.444L62.579 16.6728L64.3502 15.683C64.3502 15.683 64.4544 14.7453 64.8711 14.7453C65.2879 14.7453 66.9549 13.9118 66.9549 13.9118Z" fill="#FFD233"/>
<path d="M63.3603 16.7249H62.5789C62.3622 16.9278 62.2006 17.1824 62.1095 17.465C62.0183 17.7475 62.0006 18.0486 62.058 18.3399C62.2664 19.3297 63.2061 22.6111 63.2061 22.6111L63.9855 20.5799L63.3603 16.7249Z" fill="#FFD233"/>
<path d="M61.1165 25.091C61.1165 25.091 59.5575 26.7791 60.7036 27.6648C61.8497 28.5504 62.1321 25.6331 62.1321 25.6331L61.1165 25.091Z" fill="#FFB8B8"/>
<path d="M63.3604 21.5697L62.9957 23.0283L62.3706 24.1744C62.3706 24.1744 60.2347 25.581 60.2347 26.1019C60.2347 26.1019 61.1724 24.9037 62.3706 26.1019L63.4385 23.5232L63.3604 21.5697Z" fill="#FFD233"/>
<path d="M65.1473 10.7956C66.4653 10.7956 67.5337 10.1546 67.5337 9.36384C67.5337 8.57308 66.4653 7.93204 65.1473 7.93204C63.8294 7.93204 62.761 8.57308 62.761 9.36384C62.761 10.1546 63.8294 10.7956 65.1473 10.7956Z" fill="#2F2E41"/>
<path d="M69.8723 9.48381C69.8723 9.48381 68.2052 8.54611 67.528 9.22334C66.8508 9.90056 69.5597 10.9425 69.5597 10.9425L69.8723 9.48381Z" fill="#FFB8B8"/>
<path d="M70.4975 14.6411L70.8622 14.3807C70.8622 14.3807 71.2789 13.7555 71.6436 13.9639C72.0083 14.1723 74.1441 13.1825 74.1441 13.1825C74.1441 13.1825 73.3627 13.5472 73.3627 12.922C73.3627 12.2969 73.2585 12.4011 72.7376 12.4011C72.2166 12.4011 72.2166 12.6615 72.0083 12.2969C71.7999 11.9322 71.9041 11.7238 71.5394 11.9322C71.1747 12.1406 70.758 11.9843 70.6538 11.828C70.5496 11.6717 68.6742 11.4113 68.6742 11.4113C68.6742 11.4113 69.4035 9.2754 69.5598 9.11912C69.7161 8.96284 73.7274 10.7341 73.7274 10.7341C73.7274 10.7341 78.7806 12.1406 77.4782 13.7555C76.1758 15.3705 71.4873 17.8189 71.4873 17.8189L70.4975 14.6411Z" fill="#FFD233"/>
<path d="M80.2478 0.869854L89.6461 0.928227C89.6461 0.928227 105.115 9.159 94.2576 26.2043C94.2576 26.2043 89.8212 25.1536 84.9177 28.7728C84.9177 28.7728 82.0574 1.51197 80.2478 0.869854Z" fill="#6EA7E0"/>
<path opacity="0.2" d="M83.0435 0.955168C84.7272 7.98844 86.6306 26.1286 86.6306 26.1286C91.0115 22.8951 95.0167 23.3889 95.8213 23.531C95.3467 24.4706 94.8248 25.3855 94.2576 26.2722C94.2576 26.2722 89.8212 25.2215 84.9177 28.8407C84.9177 28.8407 82.0574 1.57992 80.2478 0.937805L83.0435 0.955168Z" fill="black"/>
<path d="M94.3159 9.68432L95.1331 13.6538L105.404 11.787L105.407 11.7858L105.64 7.11586H103.656L94.3159 9.68432Z" fill="#3F3D56"/>
<path opacity="0.2" d="M103.822 7.11586L105.404 11.787L105.407 11.7858L105.641 7.11586H103.822Z" fill="black"/>
<path d="M94.6663 14.1208C95.3111 14.1208 95.8338 12.9186 95.8338 11.4356C95.8338 9.9526 95.3111 8.75039 94.6663 8.75039C94.0215 8.75039 93.4988 9.9526 93.4988 11.4356C93.4988 12.9186 94.0215 14.1208 94.6663 14.1208Z" fill="#3F3D56"/>
<path d="M100.737 68.1819C100.69 68.1819 100.644 68.1727 100.601 68.1548C100.557 68.1368 100.518 68.1106 100.485 68.0774C100.452 68.0443 100.425 68.005 100.407 67.9617C100.389 67.9184 100.38 67.872 100.38 67.8251V11.4356C100.38 11.341 100.418 11.2502 100.485 11.1833C100.552 11.1163 100.642 11.0787 100.737 11.0787C100.832 11.0787 100.923 11.1163 100.989 11.1833C101.056 11.2502 101.094 11.341 101.094 11.4356V67.8251C101.094 67.8719 101.085 67.9183 101.067 67.9616C101.049 68.0049 101.023 68.0443 100.989 68.0774C100.956 68.1105 100.917 68.1368 100.874 68.1548C100.83 68.1727 100.784 68.1819 100.737 68.1819H100.737Z" fill="#3F3D56"/>
<path d="M95.8342 78.1056C95.7815 78.1057 95.7294 78.0942 95.6817 78.0717C95.6341 78.0493 95.5919 78.0166 95.5584 77.9759C95.5248 77.9353 95.5007 77.8877 95.4878 77.8366C95.4748 77.7855 95.4734 77.7322 95.4835 77.6805L100.039 54.3274L88.0766 72.574C88.0509 72.6133 88.0177 72.6471 87.979 72.6736C87.9402 72.7 87.8966 72.7186 87.8507 72.7281C87.8048 72.7377 87.7574 72.7382 87.7113 72.7294C87.6652 72.7207 87.6213 72.703 87.5821 72.6772C87.5428 72.6515 87.5091 72.6183 87.4827 72.5795C87.4563 72.5407 87.4378 72.4971 87.4283 72.4511C87.4188 72.4052 87.4184 72.3578 87.4272 72.3118C87.4361 72.2657 87.4539 72.2218 87.4797 72.1826L100.439 52.4157C100.484 52.3466 100.552 52.2953 100.631 52.2707C100.71 52.2461 100.795 52.2497 100.872 52.2809C100.948 52.3121 101.012 52.3689 101.051 52.4416C101.09 52.5144 101.103 52.5985 101.087 52.6797L96.1841 77.8171C96.1682 77.8983 96.1246 77.9714 96.0608 78.024C95.997 78.0767 95.9169 78.1055 95.8342 78.1056Z" fill="#3F3D56"/>
<path d="M114.28 73.6692C114.221 73.6692 114.163 73.6545 114.111 73.6264C114.058 73.5982 114.014 73.5575 113.982 73.5079L100.439 52.8434C100.413 52.8043 100.395 52.7604 100.386 52.7143C100.378 52.6682 100.378 52.6208 100.388 52.5749C100.397 52.529 100.416 52.4854 100.442 52.4466C100.468 52.4078 100.502 52.3746 100.541 52.3489C100.581 52.3232 100.625 52.3055 100.671 52.2968C100.717 52.288 100.764 52.2885 100.81 52.2981C100.856 52.3077 100.899 52.3263 100.938 52.3527C100.977 52.3792 101.01 52.413 101.036 52.4523L114.579 73.1167C114.614 73.1705 114.634 73.2329 114.637 73.2971C114.639 73.3614 114.625 73.4252 114.594 73.4818C114.564 73.5384 114.518 73.5857 114.463 73.6187C114.408 73.6516 114.345 73.6691 114.28 73.6692Z" fill="#3F3D56"/>
</g>
<defs>
<clipPath id="clip0">
<rect width="120" height="81.8338" fill="white" transform="translate(0.166626 0.86985)"/>
</clipPath>
</defs>
</svg>
