<svg width="141" height="80" viewBox="0 0 141 80" fill="none" xmlns="http://www.w3.org/2000/svg">
<ellipse cx="40.2924" cy="40.1217" rx="39.7219" ry="39.3503" fill="#FFD233"/>
<g clip-path="url(#clip0)">
<path d="M64.9176 35.9198C64.9176 35.9198 74.7567 36.394 75.3494 39.8317C75.9421 43.2694 63.8508 40.1874 63.8508 40.1874L64.9176 35.9198Z" fill="#A0616A"/>
<path d="M49.3882 25.0139C49.3882 25.0139 51.0478 25.4881 52.3518 28.3331C53.6557 31.1781 56.2637 33.7861 56.2637 33.7861L66.814 35.8013L65.0358 41.1357L54.9597 39.8318L48.6769 36.2755L49.3882 25.0139Z" fill="#575A89"/>
<path opacity="0.1" d="M49.3882 25.0139C49.3882 25.0139 51.0478 25.4881 52.3518 28.3331C53.6557 31.1781 56.2637 33.7861 56.2637 33.7861L66.814 35.8013L65.0358 41.1357L54.9597 39.8318L48.6769 36.2755L49.3882 25.0139Z" fill="#6EA7E0"/>
<path d="M130.175 15.3527H117.728V15.5897H130.175V15.3527Z" fill="#3F3D56"/>
<path d="M108.008 15.3527H68.5329V15.5897H108.008V15.3527Z" fill="#3F3D56"/>
<path d="M117.136 43.9215H23.6053V79.6029H117.136V43.9215Z" fill="#575A89"/>
<path d="M33.7409 19.5609L34.8078 26.3178L42.1574 26.6734L41.3276 16.7159L33.7409 19.5609Z" fill="#A0616A"/>
<path d="M25.9762 64.6665L25.6205 79.6028H36.7636L38.4232 73.6757L39.7271 79.6028H51.3443C51.3443 79.6028 51.5814 62.5327 50.2774 62.4141C48.9735 62.2956 25.9762 64.6665 25.9762 64.6665Z" fill="#2F2E41"/>
<path d="M36.1114 21.3391C39.6467 21.3391 42.5127 18.4731 42.5127 14.9378C42.5127 11.4024 39.6467 8.53646 36.1114 8.53646C32.576 8.53646 29.7101 11.4024 29.7101 14.9378C29.7101 18.4731 32.576 21.3391 36.1114 21.3391Z" fill="#A0616A"/>
<path d="M25.3241 65.3185L28.6433 48.9596L24.2572 27.2662L34.3588 23.4757L39.3122 22.8801L41.8023 22.4153L43.5797 22.8801C43.5797 22.8801 50.6923 24.6583 51.0479 25.9623C51.4035 27.2662 49.6254 37.9351 49.6254 37.9351L47.9658 46.7072L51.6406 62.4734C51.6406 62.4734 36.3486 67.6893 25.5612 65.3185H25.3241Z" fill="#6EA7E0"/>
<path opacity="0.1" d="M29.7697 33.2526V37.6387L43.7568 37.6578L30.481 36.2162L29.7697 33.2526Z" fill="black"/>
<path opacity="0.1" d="M28.5683 45.366L46.1285 42.8546L28.5683 47.8281V45.366Z" fill="black"/>
<path opacity="0.1" d="M56.4416 33.8453L54.559 40.6289L57.7456 34.0691L56.4416 33.8453Z" fill="black"/>
<path d="M41.3796 8.51793L42.5568 8.04667C42.5568 8.04667 40.0955 5.33693 36.6711 5.57257L37.6342 4.51223C37.6342 4.51223 35.2799 3.56972 33.1397 6.04382C32.0146 7.34439 30.7129 8.87316 29.9014 10.5953H28.6407L29.1669 11.7538L27.3254 12.9123L29.2155 12.7042C29.1029 13.3386 29.0856 13.9863 29.1642 14.6258C29.2453 15.2655 29.5717 15.8487 30.0747 16.2523C30.0747 16.2523 31.5345 13.2305 31.5345 12.7592V13.9374C31.5345 13.9374 32.7117 12.8771 32.7117 12.1702L33.3537 12.9949L33.6748 11.6989L37.6342 12.9949L36.9921 11.9345L39.4534 12.288L38.4903 10.992C38.4903 10.992 41.2726 12.5236 41.3796 13.8196C41.4866 15.1155 42.301 16.3435 42.301 16.3435C42.301 16.3435 44.483 10.2851 41.3796 8.51793Z" fill="#2F2E41"/>
<path d="M93.1897 32.1858H47.6694V79.7214H93.1897V32.1858Z" fill="white"/>
<path d="M86.0773 42.6175H52.4111V47.3592H86.0773V42.6175Z" fill="#FFD233"/>
<path d="M80.247 55.1831H58.1988V57.5539H80.247V55.1831Z" fill="#FFD233"/>
<path d="M80.2898 59.332H58.2415V61.7029H80.2898V59.332Z" fill="#FFD233"/>
<path d="M69.3081 63.481H58.2839V65.8519H69.3081V63.481Z" fill="#FFD233"/>
<path d="M86.6702 75.4539H81.5729V77.8247H86.6702V75.4539Z" fill="#FFD233"/>
<path d="M44.4094 38.1722C44.4094 38.1722 54.7226 36.6311 56.2637 38.8834C57.8048 41.1357 45.3578 42.3212 45.3578 42.3212L44.4094 38.1722Z" fill="#A0616A"/>
<path d="M25.4427 27.1477H24.6999C24.3945 27.1468 24.0999 27.2614 23.8754 27.4686C23.1703 28.1233 21.6794 29.8128 21.0566 32.8377C20.2268 36.8682 18.8043 44.692 22.005 45.2847C25.2056 45.8774 46.1877 43.0324 46.1877 43.0324L44.6466 37.5795L29.4732 37.698C29.4732 37.698 29.7103 35.0901 29.2361 33.4305C28.7619 31.7709 25.4427 27.1477 25.4427 27.1477Z" fill="#6EA7E0"/>
<path d="M68.5329 20.3315C71.2171 20.3315 73.3931 18.1555 73.3931 15.4712C73.3931 12.787 71.2171 10.611 68.5329 10.611C65.8486 10.611 63.6726 12.787 63.6726 15.4712C63.6726 18.1555 65.8486 20.3315 68.5329 20.3315Z" fill="white"/>
<path d="M90.7006 20.3315C93.3849 20.3315 95.5609 18.1555 95.5609 15.4712C95.5609 12.787 93.3849 10.611 90.7006 10.611C88.0164 10.611 85.8404 12.787 85.8404 15.4712C85.8404 18.1555 88.0164 20.3315 90.7006 20.3315Z" fill="#3F3D56"/>
<path d="M112.868 20.45C111.884 20.45 110.921 20.158 110.102 19.6109C109.283 19.0639 108.645 18.2863 108.268 17.3765C107.892 16.4668 107.793 15.4657 107.985 14.4999C108.177 13.5341 108.651 12.647 109.348 11.9507C110.044 11.2544 110.931 10.7802 111.897 10.5881C112.863 10.396 113.864 10.4946 114.774 10.8714C115.683 11.2482 116.461 11.8864 117.008 12.7051C117.555 13.5239 117.847 14.4865 117.847 15.4712C117.846 16.7912 117.321 18.0567 116.387 18.9901C115.454 19.9235 114.188 20.4485 112.868 20.45ZM112.868 10.7295C111.93 10.7295 111.014 11.0076 110.234 11.5286C109.454 12.0497 108.846 12.7902 108.488 13.6566C108.129 14.5231 108.035 15.4765 108.218 16.3963C108.401 17.3161 108.852 18.161 109.515 18.8241C110.179 19.4873 111.023 19.9389 111.943 20.1218C112.863 20.3048 113.816 20.2109 114.683 19.852C115.549 19.4931 116.29 18.8853 116.811 18.1056C117.332 17.3258 117.61 16.409 117.61 15.4712C117.609 14.2141 117.109 13.0088 116.22 12.1199C115.331 11.231 114.125 10.7309 112.868 10.7295Z" fill="#3F3D56"/>
<path d="M135.036 20.45C134.051 20.45 133.089 20.158 132.27 19.6109C131.451 19.0639 130.813 18.2863 130.436 17.3765C130.059 16.4668 129.961 15.4657 130.153 14.4999C130.345 13.5341 130.819 12.647 131.515 11.9507C132.212 11.2544 133.099 10.7802 134.065 10.5881C135.03 10.396 136.031 10.4946 136.941 10.8714C137.851 11.2482 138.628 11.8864 139.176 12.7051C139.723 13.5239 140.015 14.4865 140.015 15.4712C140.013 16.7912 139.488 18.0567 138.555 18.9901C137.621 19.9235 136.356 20.4485 135.036 20.45ZM135.036 10.7295C134.098 10.7295 133.181 11.0076 132.401 11.5286C131.622 12.0497 131.014 12.7902 130.655 13.6566C130.296 14.5231 130.202 15.4765 130.385 16.3963C130.568 17.3161 131.02 18.161 131.683 18.8241C132.346 19.4873 133.191 19.9389 134.111 20.1218C135.031 20.3048 135.984 20.2109 136.85 19.852C137.717 19.4931 138.457 18.8853 138.978 18.1056C139.499 17.3258 139.778 16.409 139.778 15.4712C139.776 14.2141 139.276 13.0088 138.387 12.1199C137.498 11.231 136.293 10.7309 135.036 10.7295Z" fill="#3F3D56"/>
<path d="M67.8628 17.5389L65.7565 14.7308L66.5152 14.1616L67.9653 16.0951L74.6321 9.42847L75.3025 10.0989L67.8628 17.5389Z" fill="#3F3D56"/>
<path d="M118.771 79.472H21.9698V79.8018H118.771V79.472Z" fill="#3F3D56"/>
</g>
<defs>
<clipPath id="clip0">
<rect width="120" height="75.4658" fill="white" transform="translate(20.0143 4.336)"/>
</clipPath>
</defs>
</svg>
