<svg width="96" height="93" viewBox="0 0 96 93" fill="none" xmlns="http://www.w3.org/2000/svg">
<path d="M80 79.4375H16C11.6 79.4375 8 75.95 8 71.6875V31.1938C8 28.675 9.2 26.35 11.4 24.8L48 0L84.6 24.8C86.8 26.1563 88 28.675 88 31.1938V71.6875C88 75.95 84.4 79.4375 80 79.4375Z" fill="#78909C"/>
<path d="M28 1.9375H68V62H28V1.9375Z" fill="#FFC700"/>
<path d="M26 0V63.9375H70V0H26ZM66 60.0625H30V3.875H66V60.0625Z" fill="#FFD233"/>
<path d="M68 5.8125C68 9.10625 67.4 11.625 64 11.625C60.6 11.625 58 9.10625 58 5.8125C58 2.51875 60.6 1.9375 64 1.9375C67.4 1.9375 68 2.51875 68 5.8125Z" fill="#FFD233"/>
<path d="M32 1.9375C35.4 1.9375 38 2.51875 38 5.8125C38 9.10625 35.4 11.625 32 11.625C28.6 11.625 28 9.10625 28 5.8125C28 2.51875 28.6 1.9375 32 1.9375Z" fill="#FFD233"/>
<path d="M48 19.375C50.2091 19.375 52 17.6401 52 15.5C52 13.3599 50.2091 11.625 48 11.625C45.7909 11.625 44 13.3599 44 15.5C44 17.6401 45.7909 19.375 48 19.375Z" fill="#FFD233"/>
<path d="M48 50.375C54.6274 50.375 60 45.1703 60 38.75C60 32.3297 54.6274 27.125 48 27.125C41.3726 27.125 36 32.3297 36 38.75C36 45.1703 41.3726 50.375 48 50.375Z" fill="#FFD233"/>
<path d="M80 79.4375H16C11.6 79.4375 8 75.95 8 71.6875V32.9375L48 58.125L88 32.9375V71.6875C88 75.95 84.4 79.4375 80 79.4375Z" fill="#CFD8DC"/>
</svg>
