<svg width="121" height="84" viewBox="0 0 121 84" fill="none" xmlns="http://www.w3.org/2000/svg">
<g clip-path="url(#clip0)">
<path d="M118.816 62.0758C118.817 62.3378 118.767 62.5975 118.668 62.84C118.569 63.0826 118.423 63.3033 118.239 63.4895C118.054 63.6757 117.835 63.8238 117.594 63.9253C117.352 64.0268 117.093 64.0798 116.831 64.0811H29.5163C29.2543 64.0798 28.9952 64.0268 28.7537 63.9253C28.5122 63.8238 28.293 63.6757 28.1087 63.4895C27.9244 63.3033 27.7786 63.0826 27.6796 62.84C27.5806 62.5975 27.5304 62.3378 27.5318 62.0758V2.43408C27.5304 2.1721 27.5806 1.91241 27.6796 1.66985C27.7786 1.42729 27.9244 1.2066 28.1087 1.02038C28.293 0.834168 28.5122 0.686075 28.7537 0.584558C28.9952 0.483042 29.2543 0.430091 29.5163 0.428728H116.831C117.093 0.430091 117.352 0.483042 117.594 0.584558C117.835 0.686075 118.054 0.834168 118.239 1.02038C118.423 1.2066 118.569 1.42729 118.668 1.66985C118.767 1.91241 118.817 2.1721 118.816 2.43408" fill="url(#paint0_linear)"/>
<path d="M117.79 61.0991C117.79 61.3538 117.739 61.6059 117.642 61.8412C117.545 62.0764 117.402 62.2902 117.222 62.4702C117.042 62.6503 116.828 62.7931 116.593 62.8906C116.357 62.988 116.105 63.0382 115.851 63.0382H30.5606C30.0463 63.0382 29.5531 62.8339 29.1895 62.4702C28.8259 62.1066 28.6216 61.6134 28.6216 61.0991V3.44456C28.6226 2.93098 28.8274 2.43878 29.1909 2.07598C29.5544 1.71319 30.047 1.50943 30.5606 1.50944H115.851C116.365 1.50944 116.858 1.71373 117.222 2.07736C117.585 2.441 117.79 2.9342 117.79 3.44846" fill="#F5F5F5"/>
<path d="M113.318 4.26257H33.1797C32.5441 4.26257 32.0288 4.77786 32.0288 5.4135V59.4202C32.0288 60.0558 32.5441 60.5711 33.1797 60.5711H113.318C113.954 60.5711 114.469 60.0558 114.469 59.4202V5.4135C114.469 4.77786 113.954 4.26257 113.318 4.26257Z" fill="url(#paint1_linear)"/>
<path d="M112.217 5.55785H34.1941C33.5585 5.55785 33.0432 6.07314 33.0432 6.70878V57.8336C33.0432 58.4692 33.5585 58.9845 34.1941 58.9845H112.217C112.853 58.9845 113.368 58.4692 113.368 57.8336V6.70878C113.368 6.07314 112.853 5.55785 112.217 5.55785Z" fill="white"/>
<path d="M28.5762 58.4943L51.0018 32.7979C51.3886 32.3548 51.8592 31.9925 52.3865 31.7318C52.9138 31.4711 53.4874 31.3172 54.0744 31.2789C54.6613 31.2406 55.2501 31.3186 55.8068 31.5086C56.3635 31.6985 56.8771 31.9966 57.3183 32.3856L63.5983 37.9231C64.4001 38.6306 65.4292 39.0268 66.4984 39.0397C67.5676 39.0526 68.6059 38.6813 69.4245 37.9934L88.6171 21.8634C89.5006 21.1209 90.6373 20.7494 91.7887 20.8267C92.9402 20.9041 94.0169 21.4243 94.7932 22.2782L118.346 48.197C119 48.9166 119.401 49.8298 119.488 50.798L120.398 61.0237C120.455 61.6415 120.382 62.2642 120.184 62.8521C119.987 63.4401 119.669 63.9804 119.25 64.4387C118.832 64.8969 118.323 65.263 117.756 65.5136C117.188 65.7642 116.575 65.8937 115.955 65.8941H31.9431C30.7826 65.8939 29.6677 65.4418 28.8348 64.6337C28.0018 63.8255 27.5163 62.7248 27.4812 61.5647C27.4461 60.4398 27.8372 59.3432 28.5762 58.4943Z" fill="#FFD233"/>
<path d="M42.7163 19.0998C45.4636 19.0998 47.6907 16.8727 47.6907 14.1255C47.6907 11.3782 45.4636 9.1511 42.7163 9.1511C39.969 9.1511 37.7419 11.3782 37.7419 14.1255C37.7419 16.8727 39.969 19.0998 42.7163 19.0998Z" fill="#6EA7E0"/>
<path d="M105.291 70.7344C105.292 70.9964 105.242 71.2561 105.143 71.4987C105.044 71.7412 104.898 71.9619 104.714 72.1481C104.529 72.3344 104.31 72.4824 104.069 72.584C103.827 72.6855 103.568 72.7384 103.306 72.7398H15.986C15.7236 72.7391 15.4639 72.6867 15.2217 72.5855C14.9796 72.4842 14.7599 72.3363 14.575 72.15C14.3902 71.9637 14.2439 71.7428 14.1446 71.4999C14.0453 71.257 13.9949 70.9969 13.9962 70.7344V11.094C13.9949 10.8321 14.0451 10.5724 14.1441 10.3298C14.2431 10.0872 14.3889 9.86655 14.5732 9.68034C14.7575 9.49412 14.9766 9.34603 15.2181 9.24451C15.4597 9.14299 15.7188 9.09004 15.9808 9.08868H103.301C103.563 9.08936 103.823 9.14181 104.065 9.24302C104.307 9.34423 104.527 9.49222 104.712 9.6785C104.897 9.86479 105.043 10.0857 105.142 10.3286C105.241 10.5715 105.292 10.8316 105.291 11.094" fill="url(#paint2_linear)"/>
<path d="M104.259 69.7591C104.259 70.2734 104.055 70.7666 103.691 71.1302C103.328 71.4938 102.835 71.6981 102.32 71.6981H17.0303C16.5161 71.6981 16.0229 71.4938 15.6592 71.1302C15.2956 70.7666 15.0913 70.2734 15.0913 69.7591V12.1032C15.0913 11.589 15.2956 11.0958 15.6592 10.7321C16.0229 10.3685 16.5161 10.1642 17.0303 10.1642H102.32C102.835 10.1642 103.328 10.3685 103.691 10.7321C104.055 11.0958 104.259 11.589 104.259 12.1032" fill="#F5F5F5"/>
<path d="M99.7882 12.9225H19.6495C19.0138 12.9225 18.4985 13.4378 18.4985 14.0734V68.0801C18.4985 68.7158 19.0138 69.2311 19.6495 69.2311H99.7882C100.424 69.2311 100.939 68.7158 100.939 68.0801V14.0734C100.939 13.4378 100.424 12.9225 99.7882 12.9225Z" fill="url(#paint3_linear)"/>
<path d="M98.6867 14.2178H20.6639C20.0282 14.2178 19.5129 14.7331 19.5129 15.3687V66.4936C19.5129 67.1292 20.0282 67.6445 20.6639 67.6445H98.6867C99.3223 67.6445 99.8376 67.1292 99.8376 66.4936V15.3687C99.8376 14.7331 99.3223 14.2178 98.6867 14.2178Z" fill="white"/>
<path d="M15.0458 67.1542L37.4714 41.4565C37.8583 41.0132 38.3289 40.6508 38.8563 40.39C39.3837 40.1292 39.9575 39.9752 40.5446 39.9369C41.1317 39.8986 41.7206 39.9767 42.2774 40.1667C42.8343 40.3568 43.348 40.655 43.7892 41.0443L50.068 46.5844C50.8697 47.2918 51.8988 47.688 52.968 47.7009C54.0372 47.7138 55.0755 47.3425 55.8941 46.6546L75.0868 30.522C75.9702 29.7796 77.1069 29.4081 78.2583 29.4854C79.4098 29.5627 80.4865 30.0829 81.2628 30.9369L104.815 56.8608C105.468 57.5804 105.869 58.4936 105.956 59.4618L106.867 69.6876C106.921 70.3046 106.847 70.9262 106.649 71.513C106.45 72.0997 106.131 72.6387 105.713 73.0957C105.295 73.5527 104.786 73.9176 104.219 74.1673C103.653 74.4171 103.04 74.5461 102.42 74.5462H18.4089C17.2483 74.546 16.1334 74.094 15.3005 73.2858C14.4675 72.4776 13.982 71.3769 13.9469 70.2169C13.9149 69.0941 14.3073 68.0005 15.0458 67.1542Z" fill="#FFD233"/>
<path d="M29.186 27.7585C31.9333 27.7585 34.1604 25.5314 34.1604 22.7841C34.1604 20.0369 31.9333 17.8098 29.186 17.8098C26.4388 17.8098 24.2117 20.0369 24.2117 22.7841C24.2117 25.5314 26.4388 27.7585 29.186 27.7585Z" fill="#6EA7E0"/>
<path d="M91.7551 79.3944C91.7565 79.6564 91.7063 79.9161 91.6073 80.1586C91.5083 80.4012 91.3625 80.6219 91.1782 80.8081C90.9939 80.9943 90.7747 81.1424 90.5332 81.2439C90.2917 81.3454 90.0326 81.3984 89.7706 81.3998H2.45576C2.19378 81.3984 1.93464 81.3454 1.69312 81.2439C1.4516 81.1424 1.23244 80.9943 1.04816 80.8081C0.863879 80.6219 0.718079 80.4012 0.619087 80.1586C0.520095 79.9161 0.469849 79.6564 0.471219 79.3944V19.7527C0.469849 19.4907 0.520095 19.231 0.619087 18.9885C0.718079 18.7459 0.863879 18.5252 1.04816 18.339C1.23244 18.1528 1.4516 18.0047 1.69312 17.9032C1.93464 17.8016 2.19378 17.7487 2.45576 17.7473H89.7706C90.0326 17.7487 90.2917 17.8016 90.5332 17.9032C90.7747 18.0047 90.9939 18.1528 91.1782 18.339C91.3625 18.5252 91.5083 18.7459 91.6073 18.9885C91.7063 19.231 91.7565 19.4907 91.7551 19.7527" fill="url(#paint4_linear)"/>
<path d="M90.725 78.4177C90.725 78.932 90.5207 79.4252 90.1571 79.7888C89.7934 80.1525 89.3003 80.3568 88.786 80.3568H3.49994C2.98568 80.3568 2.49248 80.1525 2.12884 79.7888C1.7652 79.4252 1.56091 78.932 1.56091 78.4177V20.7567C1.56091 20.2424 1.7652 19.7492 2.12884 19.3856C2.49248 19.0219 2.98568 18.8176 3.49994 18.8176H88.7899C89.3035 18.8187 89.7957 19.0234 90.1585 19.3869C90.5213 19.7505 90.725 20.2431 90.725 20.7567" fill="white"/>
<path d="M86.2579 21.5812H6.11919C5.48355 21.5812 4.96826 22.0965 4.96826 22.7321V76.7388C4.96826 77.3745 5.48355 77.8897 6.11919 77.8897H86.2579C86.8936 77.8897 87.4088 77.3745 87.4088 76.7388V22.7321C87.4088 22.0965 86.8936 21.5812 86.2579 21.5812Z" fill="url(#paint5_linear)"/>
<path d="M85.1564 22.8765H7.1336C6.49796 22.8765 5.98267 23.3918 5.98267 24.0274V75.1522C5.98267 75.7878 6.49796 76.3031 7.1336 76.3031H85.1564C85.7921 76.3031 86.3074 75.7878 86.3074 75.1522V24.0274C86.3074 23.3918 85.7921 22.8765 85.1564 22.8765Z" fill="white"/>
<path d="M1.51165 75.8129L23.9425 50.1165C24.3292 49.6743 24.7994 49.3128 25.3261 49.0527C25.8528 48.7926 26.4257 48.639 27.0119 48.6007C27.5981 48.5624 28.1861 48.6402 28.7421 48.8296C29.2982 49.0189 29.8115 49.3162 30.2524 49.7043L36.5312 55.2443C37.333 55.9518 38.3621 56.348 39.4313 56.3609C40.5005 56.3738 41.5388 56.0025 42.3574 55.3146L61.5565 39.182C62.44 38.4395 63.5767 38.068 64.7281 38.1453C65.8795 38.2227 66.9563 38.7429 67.7325 39.5968L91.2844 65.5208C91.938 66.2404 92.3389 67.1536 92.4262 68.1218L93.3366 78.3475C93.3912 78.9645 93.3169 79.5862 93.1183 80.1729C92.9197 80.7597 92.6012 81.2987 92.183 81.7557C91.7648 82.2126 91.2561 82.5776 90.6892 82.8273C90.1223 83.077 89.5096 83.206 88.8902 83.2061H4.87861C3.72001 83.2061 2.6068 82.7556 1.77419 81.95C0.941573 81.1443 0.454771 80.0465 0.416634 78.8885C0.380255 77.7618 0.771438 76.6631 1.51165 75.8129Z" fill="#FFD233"/>
<path d="M15.6558 36.4184C18.403 36.4184 20.6301 34.1914 20.6301 31.4441C20.6301 28.6968 18.403 26.4697 15.6558 26.4697C12.9085 26.4697 10.6814 28.6968 10.6814 31.4441C10.6814 34.1914 12.9085 36.4184 15.6558 36.4184Z" fill="#6EA7E0"/>
</g>
<defs>
<linearGradient id="paint0_linear" x1="73.1737" y1="64.0812" x2="73.1737" y2="0.428728" gradientUnits="userSpaceOnUse">
<stop offset="0.01" stop-color="#808080" stop-opacity="0.25"/>
<stop offset="0.54" stop-color="#808080" stop-opacity="0.12"/>
<stop offset="1" stop-color="#808080" stop-opacity="0.1"/>
</linearGradient>
<linearGradient id="paint1_linear" x1="46202.9" y1="26044.7" x2="46202.9" y2="1664.24" gradientUnits="userSpaceOnUse">
<stop offset="0.01" stop-color="#808080" stop-opacity="0.25"/>
<stop offset="0.54" stop-color="#808080" stop-opacity="0.12"/>
<stop offset="1" stop-color="#808080" stop-opacity="0.1"/>
</linearGradient>
<linearGradient id="paint2_linear" x1="54790.6" y1="44228.8" x2="54790.6" y2="13075.4" gradientUnits="userSpaceOnUse">
<stop offset="0.01" stop-color="#808080" stop-opacity="0.25"/>
<stop offset="0.54" stop-color="#808080" stop-opacity="0.12"/>
<stop offset="1" stop-color="#808080" stop-opacity="0.1"/>
</linearGradient>
<linearGradient id="paint3_linear" x1="37612.2" y1="29802.4" x2="37612.2" y2="5422.49" gradientUnits="userSpaceOnUse">
<stop offset="0.01" stop-color="#808080" stop-opacity="0.25"/>
<stop offset="0.54" stop-color="#808080" stop-opacity="0.12"/>
<stop offset="1" stop-color="#808080" stop-opacity="0.1"/>
</linearGradient>
<linearGradient id="paint4_linear" x1="45273.7" y1="48477" x2="45273.7" y2="17322.3" gradientUnits="userSpaceOnUse">
<stop offset="0.01" stop-color="#808080" stop-opacity="0.25"/>
<stop offset="0.54" stop-color="#808080" stop-opacity="0.12"/>
<stop offset="1" stop-color="#808080" stop-opacity="0.1"/>
</linearGradient>
<linearGradient id="paint5_linear" x1="29021.6" y1="33560.7" x2="29021.6" y2="9180.17" gradientUnits="userSpaceOnUse">
<stop offset="0.01" stop-color="#808080" stop-opacity="0.25"/>
<stop offset="0.54" stop-color="#808080" stop-opacity="0.12"/>
<stop offset="1" stop-color="#808080" stop-opacity="0.1"/>
</linearGradient>
<clipPath id="clip0">
<rect width="120" height="82.7839" fill="white" transform="translate(0.415283 0.428726)"/>
</clipPath>
</defs>
</svg>
