<svg width="700" height="478" viewBox="0 0 700 478" fill="none" xmlns="http://www.w3.org/2000/svg">
<g clip-path="url(#clip0)">
<path d="M126.627 448.906C196.553 448.794 253.234 445.019 253.227 440.475C253.219 435.93 196.527 432.337 126.6 432.449C56.6735 432.561 -0.00733158 436.336 -3.74642e-05 440.881C0.00725665 445.426 56.6999 449.019 126.627 448.906Z" fill="#E5E5E5"/>
<path d="M394.448 341.081C449.354 340.993 493.859 338.029 493.853 334.461C493.847 330.892 449.333 328.071 394.427 328.159C339.521 328.247 295.016 331.211 295.022 334.78C295.027 338.348 339.542 341.17 394.448 341.081Z" fill="#E5E5E5"/>
<path d="M574.42 452.925C643.796 452.813 700.02 442.785 700 430.525C699.98 418.266 643.724 408.418 574.349 408.529C504.973 408.64 448.749 418.669 448.769 430.928C448.788 443.188 505.044 453.036 574.42 452.925Z" fill="#E5E5E5"/>
<path d="M145.4 216.62L159.657 212.65C159.657 212.65 165.241 211.535 161.829 200.629C158.417 189.723 151.65 192.775 151.65 192.775L139.002 196.45L134.009 197.992L141.035 207.848L141.624 214.418L145.4 216.62Z" fill="#3F3D56"/>
<path d="M117.852 187.803L113.379 205.671L136.298 227.882L138.268 228.376L143.525 226.899L147.998 209.033L143.467 204.269L148.098 203.055L138.215 193.46L133.058 194.543L128.921 190.435L131.713 189.32L131.976 188.269L128.594 185.606L117.852 187.803Z" fill="#3F3D56"/>
<path d="M139.325 213.004L136.364 224.828L122.705 211.915L126.125 199.927L139.325 213.004Z" fill="#0080FF"/>
<path d="M117.852 187.803L117.225 190.309L140.015 212.479L141.985 212.973L147.078 211.594L147.358 211.589L147.998 209.033L143.467 204.269L148.098 203.055L138.215 193.46L133.058 194.543L128.921 190.435L131.713 189.32L131.976 188.269L128.594 185.606L117.852 187.803Z" stroke="#3F3D56" stroke-miterlimit="10"/>
<path d="M130.219 188.038C130.392 187.349 129.708 186.584 128.692 186.329C127.676 186.075 126.713 186.428 126.541 187.117C126.368 187.806 127.051 188.571 128.067 188.825C129.083 189.08 130.046 188.727 130.219 188.038Z" fill="#6EA7E0"/>
<path d="M144.698 207.16C144.87 206.47 144.187 205.705 143.171 205.451C142.155 205.197 141.192 205.549 141.019 206.239C140.846 206.928 141.53 207.693 142.546 207.947C143.562 208.201 144.525 207.849 144.698 207.16Z" fill="#6EA7E0"/>
<path d="M154.873 238.877L151.764 228.306C151.764 228.306 159.847 209.03 150.52 207.165C141.193 205.299 140.571 225.197 140.571 225.197L144.302 237.012L154.873 238.877Z" fill="#FFB6B6"/>
<path d="M97.149 218.323C110.79 218.323 121.849 207.265 121.849 193.623C121.849 179.982 110.79 168.923 97.149 168.923C83.5075 168.923 72.4489 179.982 72.4489 193.623C72.4489 207.265 83.5075 218.323 97.149 218.323Z" fill="#FFB6B6"/>
<path d="M105.14 211.059C105.14 211.059 106.593 229.22 110.225 230.673C113.858 232.126 77.7498 242.297 77.7498 242.297L88.6469 229.947C88.6469 229.947 84.0725 211.059 78.9872 206.7L105.14 211.059Z" fill="#FFB6B6"/>
<path d="M139.949 233.281L149.898 232.037C149.898 232.037 161.713 238.255 161.713 246.339C161.713 254.422 168.553 267.48 168.553 267.48C168.553 267.48 173.527 284.891 162.334 286.135C151.142 287.378 141.193 267.48 141.193 267.48L139.949 233.281Z" fill="#6EA7E0"/>
<path d="M145.546 332.149L165.602 318.332C168.774 316.106 172.539 314.879 176.413 314.809C180.288 314.739 184.095 315.829 187.345 317.939C190.109 319.781 192.181 322.2 192.181 325.309C192.181 334.636 171.662 356.399 171.662 356.399C171.662 356.399 156.116 390.599 141.193 391.842C131.376 392.733 121.618 394.186 111.968 396.195C111.968 396.195 118.808 421.067 115.077 427.907C111.346 434.747 97.0443 442.831 95.8007 442.209C94.5571 441.587 77.1463 425.42 69.6847 402.413C62.223 379.406 57.2484 361.995 64.0883 360.752C70.9283 359.508 145.546 332.149 145.546 332.149Z" fill="#2F2E41"/>
<path d="M190.316 323.443C190.316 323.443 194.669 322.821 194.047 333.392C193.425 343.963 191.56 381.893 188.45 389.355C185.341 396.817 184.72 405.522 185.963 408.631C187.207 411.74 189.694 416.715 185.341 417.337C180.989 417.959 162.956 415.471 161.091 414.849C159.225 414.228 168.553 389.977 167.309 388.733C166.065 387.49 164.822 358.265 164.822 358.265L190.316 323.443Z" fill="#2F2E41"/>
<path d="M184.098 415.471C184.098 415.471 194.669 412.362 195.912 419.202C195.912 419.202 197.778 429.773 189.694 433.504C184.477 435.969 179.484 438.882 174.771 442.209C174.771 442.209 161.713 447.184 161.091 440.965C160.469 434.747 163.578 412.362 163.578 412.362L184.098 415.471Z" fill="#2F2E41"/>
<path d="M113.833 422.933L93.9352 406.766C93.9352 406.766 97.6661 426.664 92.6916 430.395L90.4193 437.038L96.7823 442.243C96.7823 442.243 116.32 439.1 113.833 422.933Z" fill="#2F2E41"/>
<path d="M85.8516 395.573C85.8516 395.573 98.9097 399.304 97.0443 412.362C95.1788 425.42 92.7871 439.607 92.7871 439.607C92.7871 439.607 92.0698 474.543 82.7426 477.031C73.4155 479.518 70.9282 474.543 70.9282 474.543C70.9282 474.543 60.3259 447.243 63.4665 439.1C67.268 429.244 72.746 418.177 70.9282 414.849C69.1396 411.575 72.1718 393.708 85.8516 395.573Z" fill="#2F2E41"/>
<path d="M78.3899 223.954C78.3899 223.954 83.3644 224.575 91.448 225.819C99.5316 227.063 105.128 220.844 109.481 222.088C113.833 223.332 149.898 232.037 149.898 232.037L146.779 255.953C145.756 263.792 143.217 271.297 139.964 278.502C134.719 290.119 142.49 326.512 149.898 333.392C156.342 339.376 164.822 340.854 155.494 351.425C146.167 361.995 130 371.323 97.0443 368.214C64.0883 365.104 59.7356 365.726 59.7356 360.752C59.7356 355.777 71.464 290.487 67.7331 286.756C64.0022 283.025 62.1368 279.295 62.1368 277.429C62.1368 276.182 58.2469 262.154 55.6676 252.99C53.794 246.521 54.4912 239.579 57.6137 233.612C58.781 231.427 60.1159 229.75 61.5149 229.55C65.8676 228.928 62.8446 225.819 65.9537 225.819C69.0628 225.819 70.9282 226.441 72.7936 225.819L78.3899 223.954Z" fill="#6EA7E0"/>
<path d="M126.049 176.963C126.049 176.963 125.487 146.44 95.5268 160.888C95.5268 160.888 72.4897 160.076 69.2658 189.217L66.1487 219.725L69.4877 217.215L71.7249 220.665L77.8265 221.288L79.6079 215.921L81.7191 221.809L130.605 219.517C130.605 219.517 107.148 209.934 103.437 187.113L108.187 190.851L126.049 176.963Z" fill="#2F2E41"/>
<path d="M69.7412 177.231C76.5041 177.231 81.9865 171.748 81.9865 164.985C81.9865 158.223 76.5041 152.74 69.7412 152.74C62.9783 152.74 57.4959 158.223 57.4959 164.985C57.4959 171.748 62.9783 177.231 69.7412 177.231Z" fill="#2F2E41"/>
<path d="M81.7875 160.181C81.1359 157.137 79.3482 154.455 76.7886 152.683C74.2291 150.911 71.0902 150.181 68.0112 150.642C68.2567 150.573 68.4989 150.498 68.7515 150.444C70.3241 150.108 71.9475 150.085 73.5289 150.377C75.1104 150.668 76.6189 151.268 77.9684 152.143C79.3179 153.017 80.482 154.149 81.3941 155.474C82.3062 156.798 82.9486 158.289 83.2844 159.862C83.6203 161.434 83.6432 163.058 83.3517 164.639C83.0602 166.22 82.4601 167.729 81.5856 169.078C80.7111 170.428 79.5793 171.592 78.255 172.504C76.9306 173.416 75.4396 174.059 73.867 174.394C73.6143 174.448 73.3625 174.479 73.1104 174.517C76.1091 173.679 78.6759 171.731 80.288 169.067C81.9002 166.404 82.4364 163.226 81.7875 160.181Z" fill="#2F2E41"/>
<path d="M381.402 74.3752C392.55 74.3752 401.587 65.3383 401.587 54.1908C401.587 43.0432 392.55 34.0063 381.402 34.0063C370.255 34.0063 361.218 43.0432 361.218 54.1908C361.218 65.3383 370.255 74.3752 381.402 74.3752Z" fill="#2F2E41"/>
<path d="M392.03 67.6285C392.03 67.6285 391.726 80.0877 392.941 80.3916C394.157 80.6955 376.228 85.5576 376.228 85.5576L374.404 68.5401L392.03 67.6285Z" fill="#FFB8B8"/>
<path d="M250.419 173.988C250.419 173.988 237.049 173.988 236.745 172.469C236.441 170.949 233.706 184.928 233.706 184.928L239.176 186.751C239.176 186.751 249.508 182.193 250.419 182.193C251.331 182.193 250.419 173.988 250.419 173.988Z" fill="#FFB8B8"/>
<path d="M235.833 179.458C235.833 179.458 238.264 171.253 241.303 170.949C241.303 170.949 230.971 164.264 230.667 162.136C230.363 160.009 226.717 154.539 225.197 156.363C223.678 158.186 223.678 187.055 226.413 190.094C229.148 193.133 241.303 185.823 241.303 185.823C241.303 185.823 233.706 182.497 235.833 179.458Z" fill="#2F2E41"/>
<path d="M400.842 295.846L403.273 308.913L392.03 310.736V295.846H400.842Z" fill="#FFB8B8"/>
<path d="M400.842 307.393C400.842 307.393 402.665 301.619 403.881 302.531C405.097 303.443 406.92 309.217 406.616 310.736C406.312 312.255 404.185 324.107 405.097 326.234C406.008 328.361 400.538 339.301 393.549 338.389C386.56 337.478 387.167 331.4 387.167 331.4L389.599 321.98L390.51 307.089C390.51 307.089 398.411 305.874 400.842 307.393Z" fill="#2F2E41"/>
<path d="M388.463 41.299C393.076 41.299 396.815 37.5596 396.815 32.9468C396.815 28.334 393.076 24.5946 388.463 24.5946C383.85 24.5946 380.111 28.334 380.111 32.9468C380.111 37.5596 383.85 41.299 388.463 41.299Z" fill="#2F2E41"/>
<path d="M399.599 28.4227C399.599 26.3582 398.835 24.3669 397.453 22.8329C396.071 21.2989 394.17 20.331 392.117 20.1157C392.406 20.0857 392.697 20.0706 392.987 20.0706C395.201 20.0726 397.323 20.9535 398.888 22.5196C400.453 24.0857 401.332 26.2089 401.332 28.4227C401.332 30.6366 400.453 32.7598 398.888 34.3259C397.323 35.892 395.201 36.7729 392.987 36.7749C392.697 36.7748 392.406 36.7598 392.117 36.7298C394.17 36.5145 396.071 35.5465 397.453 34.0126C398.835 32.4786 399.599 30.4872 399.599 28.4227Z" fill="#2F2E41"/>
<path d="M381.394 76.1372C388.442 76.1372 394.157 70.4229 394.157 63.3741C394.157 56.3252 388.442 50.6109 381.394 50.6109C374.345 50.6109 368.63 56.3252 368.63 63.3741C368.63 70.4229 374.345 76.1372 381.394 76.1372Z" fill="#FFB8B8"/>
<path d="M406.616 152.108C406.616 152.108 406.008 167.302 403.577 175.203C401.146 183.105 392.381 239.373 394.205 243.628C396.028 247.882 405.4 294.934 403.273 297.669C401.146 300.404 391.118 299.492 391.118 299.492L377.491 242.412C377.491 242.412 380.178 179.458 357.691 177.938C335.203 176.419 298.433 175.507 298.433 175.507C298.433 175.507 274.73 182.497 264.094 182.193C253.458 181.889 247.381 184.928 247.381 184.928L245.557 172.469L292.659 162.136C292.659 162.136 335.811 147.246 359.514 151.197C383.217 155.147 406.616 152.108 406.616 152.108Z" fill="#2F2E41"/>
<path d="M389.598 76.4411C389.598 76.4411 393.245 74.3139 394.157 76.4411C395.068 78.5683 401.45 80.3916 403.881 78.5683C406.312 76.745 412.39 79.1761 412.39 79.1761L419.075 98.9286C419.075 98.9286 415.733 115.946 412.694 125.367C409.655 134.787 408.439 154.236 409.655 156.059C410.87 157.882 385.344 165.175 372.885 160.617C360.426 156.059 357.691 150.893 357.691 150.893C357.691 150.893 371.365 131.444 366.807 122.328C362.249 113.211 365.895 102.879 365.895 102.879L364.072 92.547L374.404 86.7732C374.404 86.7732 375.012 81.3033 377.443 81.3033C379.874 81.3033 389.598 76.4411 389.598 76.4411Z" fill="#FFD233"/>
<path d="M368.63 92.8508H364.072C362.808 94.0341 361.865 95.5197 361.334 97.1678C360.802 98.8159 360.699 100.572 361.033 102.271C362.249 108.045 367.731 127.187 367.731 127.187L372.277 115.338L368.63 92.8508Z" fill="#FFD233"/>
<path d="M355.541 141.653C355.541 141.653 346.447 151.501 353.132 156.667C359.818 161.833 361.465 144.815 361.465 144.815L355.541 141.653Z" fill="#FFB8B8"/>
<path d="M368.63 121.112L366.503 129.621L362.857 136.306C362.857 136.306 350.397 144.511 350.397 147.55C350.397 147.55 355.867 140.561 362.857 147.55L369.086 132.508L368.63 121.112Z" fill="#FFD233"/>
<path d="M379.054 58.2633C386.742 58.2633 392.975 54.5239 392.975 49.9112C392.975 45.2984 386.742 41.559 379.054 41.559C371.366 41.559 365.134 45.2984 365.134 49.9112C365.134 54.5239 371.366 58.2633 379.054 58.2633Z" fill="#2F2E41"/>
<path d="M406.616 50.6109C406.616 50.6109 396.892 45.141 392.941 49.0915C388.991 53.042 404.793 59.1197 404.793 59.1197L406.616 50.6109Z" fill="#FFB8B8"/>
<path d="M410.263 80.6955L412.39 79.176C412.39 79.176 414.821 75.5294 416.948 76.745C419.075 77.9605 431.535 72.1867 431.535 72.1867C431.535 72.1867 426.976 74.3139 426.976 70.6673C426.976 67.0207 426.368 67.6284 423.33 67.6284C420.291 67.6284 420.291 69.1479 419.075 67.0207C417.86 64.8935 418.467 63.6779 416.34 64.8935C414.213 66.109 411.782 65.1974 411.174 64.2857C410.566 63.374 399.627 61.8546 399.627 61.8546C399.627 61.8546 403.881 49.3954 404.793 48.4837C405.704 47.5721 429.103 57.9042 429.103 57.9042C429.103 57.9042 458.58 66.109 450.983 75.5294C443.386 84.9499 416.036 99.2324 416.036 99.2324L410.263 80.6955Z" fill="#FFD233"/>
<path d="M467.14 0.362923L521.964 0.703431C521.964 0.703431 612.2 48.7163 548.864 148.147C548.864 148.147 522.985 142.018 494.382 163.13C494.382 163.13 477.696 4.10861 467.14 0.362923Z" fill="#6EA7E0"/>
<path opacity="0.2" d="M483.448 0.860631C493.27 41.8881 504.374 147.706 504.374 147.706C529.929 128.844 553.293 131.724 557.986 132.553C555.218 138.034 552.173 143.371 548.864 148.544C548.864 148.544 522.985 142.414 494.382 163.526C494.382 163.526 477.696 4.50503 467.14 0.759346L483.448 0.860631Z" fill="black"/>
<path d="M549.205 51.7807L553.972 74.936L613.883 64.0461L613.902 64.0391L615.265 36.7981H603.688L549.205 51.7807Z" fill="#3F3D56"/>
<path opacity="0.2" d="M604.654 36.7981L613.883 64.0461L613.902 64.0391L615.265 36.7981H604.654Z" fill="black"/>
<path d="M551.248 77.6602C555.009 77.6602 558.058 70.6473 558.058 61.9964C558.058 53.3456 555.009 46.3327 551.248 46.3327C547.487 46.3327 544.438 53.3456 544.438 61.9964C544.438 70.6473 547.487 77.6602 551.248 77.6602Z" fill="#3F3D56"/>
<path d="M586.662 393.017C586.388 393.017 586.118 392.963 585.865 392.858C585.612 392.754 585.383 392.601 585.19 392.407C584.996 392.214 584.843 391.985 584.738 391.732C584.634 391.479 584.58 391.209 584.58 390.935V61.9965C584.58 61.4444 584.799 60.9149 585.19 60.5245C585.58 60.1342 586.11 59.9148 586.662 59.9148C587.214 59.9148 587.743 60.1342 588.134 60.5245C588.524 60.9149 588.743 61.4444 588.743 61.9965V390.935C588.743 391.208 588.689 391.479 588.585 391.732C588.48 391.984 588.327 392.214 588.134 392.407C587.941 392.6 587.711 392.754 587.458 392.858C587.206 392.963 586.935 393.017 586.662 393.017H586.662Z" fill="#3F3D56"/>
<path d="M558.061 450.905C557.754 450.906 557.45 450.838 557.172 450.707C556.893 450.577 556.648 450.386 556.452 450.149C556.256 449.911 556.116 449.634 556.04 449.336C555.965 449.038 555.956 448.727 556.015 448.425L582.588 312.199L512.808 418.637C512.658 418.866 512.465 419.064 512.239 419.218C512.013 419.372 511.759 419.481 511.491 419.536C511.223 419.592 510.946 419.595 510.678 419.544C510.409 419.493 510.152 419.39 509.924 419.239C509.695 419.089 509.498 418.896 509.344 418.669C509.19 418.443 509.082 418.189 509.027 417.921C508.971 417.653 508.969 417.376 509.02 417.108C509.072 416.839 509.176 416.583 509.326 416.354L584.921 301.047C585.185 300.644 585.582 300.345 586.042 300.202C586.503 300.058 586.999 300.079 587.446 300.261C587.893 300.443 588.263 300.774 588.493 301.199C588.722 301.623 588.797 302.114 588.705 302.587L560.102 449.222C560.009 449.696 559.755 450.122 559.383 450.429C559.011 450.736 558.544 450.904 558.061 450.905Z" fill="#3F3D56"/>
<path d="M665.663 425.025C665.317 425.026 664.977 424.94 664.673 424.776C664.368 424.612 664.11 424.374 663.921 424.085L584.921 303.542C584.77 303.313 584.667 303.057 584.615 302.789C584.564 302.52 584.566 302.244 584.622 301.976C584.677 301.708 584.785 301.453 584.939 301.227C585.093 301.001 585.29 300.807 585.519 300.657C585.748 300.507 586.004 300.404 586.273 300.353C586.542 300.302 586.818 300.305 587.086 300.361C587.354 300.417 587.608 300.525 587.834 300.68C588.06 300.834 588.253 301.031 588.403 301.26L667.402 421.803C667.608 422.117 667.725 422.48 667.741 422.855C667.757 423.23 667.671 423.602 667.493 423.932C667.315 424.263 667.051 424.538 666.729 424.731C666.406 424.923 666.038 425.025 665.663 425.025Z" fill="#3F3D56"/>
</g>
<defs>
<clipPath id="clip0">
<rect width="700" height="477.364" fill="white" transform="translate(0 0.362915)"/>
</clipPath>
</defs>
</svg>
